%TF.GenerationSoftware,KiCad,Pcbnew,10.0.5*%
%TF.CreationDate,2026-08-11T09:11:51+02:00*%
%TF.ProjectId,USB-C2easypads_kicad,5553422d-4332-4656-9173-79706164735f,rev?*%
%TF.SameCoordinates,Original*%
%TF.FileFunction,Paste,Top*%
%TF.FilePolarity,Positive*%
%FSLAX46Y46*%
G04 Gerber Fmt 4.6, Leading zero omitted, Abs format (unit mm)*
G04 Created by KiCad (PCBNEW 10.0.5) date 2026-08-11 09:11:51*
%MOMM*%
%LPD*%
G01*
G04 APERTURE LIST*
G04 Aperture macros list*
%AMRoundRect*
0 Rectangle with rounded corners*
0 $1 Rounding radius*
0 $2 $3 $4 $5 $6 $7 $8 $9 X,Y pos of 4 corners*
0 Add a 4 corners polygon primitive as box body*
4,1,4,$2,$3,$4,$5,$6,$7,$8,$9,$2,$3,0*
0 Add four circle primitives for the rounded corners*
1,1,$1+$1,$2,$3*
1,1,$1+$1,$4,$5*
1,1,$1+$1,$6,$7*
1,1,$1+$1,$8,$9*
0 Add four rect primitives between the rounded corners*
20,1,$1+$1,$2,$3,$4,$5,0*
20,1,$1+$1,$4,$5,$6,$7,0*
20,1,$1+$1,$6,$7,$8,$9,0*
20,1,$1+$1,$8,$9,$2,$3,0*%
G04 Aperture macros list end*
%ADD10RoundRect,0.150000X0.150000X-0.512500X0.150000X0.512500X-0.150000X0.512500X-0.150000X-0.512500X0*%
%ADD11RoundRect,0.250000X-0.412500X-0.650000X0.412500X-0.650000X0.412500X0.650000X-0.412500X0.650000X0*%
%ADD12RoundRect,0.250000X-0.475000X0.337500X-0.475000X-0.337500X0.475000X-0.337500X0.475000X0.337500X0*%
%ADD13RoundRect,0.250000X-0.475000X0.250000X-0.475000X-0.250000X0.475000X-0.250000X0.475000X0.250000X0*%
%ADD14RoundRect,0.150000X-0.575000X0.150000X-0.575000X-0.150000X0.575000X-0.150000X0.575000X0.150000X0*%
%ADD15RoundRect,0.075000X-0.650000X0.075000X-0.650000X-0.075000X0.650000X-0.075000X0.650000X0.075000X0*%
%ADD16RoundRect,0.250000X0.250000X0.250000X-0.250000X0.250000X-0.250000X-0.250000X0.250000X-0.250000X0*%
%ADD17RoundRect,0.250001X-0.462499X-0.624999X0.462499X-0.624999X0.462499X0.624999X-0.462499X0.624999X0*%
%ADD18RoundRect,0.250000X0.337500X0.475000X-0.337500X0.475000X-0.337500X-0.475000X0.337500X-0.475000X0*%
G04 APERTURE END LIST*
D10*
%TO.C,U1*%
X140750000Y-92637500D03*
X141700000Y-92637500D03*
X142650000Y-92637500D03*
X142650000Y-90362500D03*
X141700000Y-90362500D03*
X140750000Y-90362500D03*
%TD*%
D11*
%TO.C,C3*%
X143037500Y-98700000D03*
X146162500Y-98700000D03*
%TD*%
D12*
%TO.C,R2*%
X146700000Y-90762500D03*
X146700000Y-92837500D03*
%TD*%
%TO.C,R4*%
X138900000Y-90562500D03*
X138900000Y-92637500D03*
%TD*%
%TO.C,R3*%
X146700000Y-94562500D03*
X146700000Y-96637500D03*
%TD*%
D13*
%TO.C,C1*%
X144700000Y-90650000D03*
X144700000Y-92550000D03*
%TD*%
D14*
%TO.C,J1*%
X136485000Y-91350000D03*
X136485000Y-92150000D03*
D15*
X136485000Y-93350000D03*
X136485000Y-94350000D03*
X136485000Y-94850000D03*
X136485000Y-95850000D03*
D14*
X136485000Y-97050000D03*
X136485000Y-97850000D03*
X136485000Y-97850000D03*
X136485000Y-97050000D03*
D15*
X136485000Y-96350000D03*
X136485000Y-95350000D03*
X136485000Y-93850000D03*
X136485000Y-92850000D03*
D14*
X136485000Y-92150000D03*
X136485000Y-91350000D03*
%TD*%
D16*
%TO.C,D1*%
X141000000Y-98900000D03*
X138500000Y-98900000D03*
%TD*%
D17*
%TO.C,F1*%
X138712500Y-94700000D03*
X141687500Y-94700000D03*
%TD*%
D12*
%TO.C,C2*%
X144700000Y-94562500D03*
X144700000Y-96637500D03*
%TD*%
D18*
%TO.C,R5*%
X140637500Y-96900000D03*
X138562500Y-96900000D03*
%TD*%
M02*
