%TF.GenerationSoftware,KiCad,Pcbnew,10.0.5*%
%TF.CreationDate,2026-08-09T08:35:44+02:00*%
%TF.ProjectId,USB-C2easypads_kicad,5553422d-4332-4656-9173-79706164735f,rev?*%
%TF.SameCoordinates,Original*%
%TF.FileFunction,Legend,Top*%
%TF.FilePolarity,Positive*%
%FSLAX46Y46*%
G04 Gerber Fmt 4.6, Leading zero omitted, Abs format (unit mm)*
G04 Created by KiCad (PCBNEW 10.0.5) date 2026-08-09 08:35:44*
%MOMM*%
%LPD*%
G01*
G04 APERTURE LIST*
%ADD10C,0.150000*%
%ADD11C,0.120000*%
G04 APERTURE END LIST*
D10*
X146739580Y-91766666D02*
X146787200Y-91814285D01*
X146787200Y-91814285D02*
X146834819Y-91957142D01*
X146834819Y-91957142D02*
X146834819Y-92052380D01*
X146834819Y-92052380D02*
X146787200Y-92195237D01*
X146787200Y-92195237D02*
X146691961Y-92290475D01*
X146691961Y-92290475D02*
X146596723Y-92338094D01*
X146596723Y-92338094D02*
X146406247Y-92385713D01*
X146406247Y-92385713D02*
X146263390Y-92385713D01*
X146263390Y-92385713D02*
X146072914Y-92338094D01*
X146072914Y-92338094D02*
X145977676Y-92290475D01*
X145977676Y-92290475D02*
X145882438Y-92195237D01*
X145882438Y-92195237D02*
X145834819Y-92052380D01*
X145834819Y-92052380D02*
X145834819Y-91957142D01*
X145834819Y-91957142D02*
X145882438Y-91814285D01*
X145882438Y-91814285D02*
X145930057Y-91766666D01*
X146834819Y-90814285D02*
X146834819Y-91385713D01*
X146834819Y-91099999D02*
X145834819Y-91099999D01*
X145834819Y-91099999D02*
X145977676Y-91195237D01*
X145977676Y-91195237D02*
X146072914Y-91290475D01*
X146072914Y-91290475D02*
X146120533Y-91385713D01*
%TO.C,U1*%
D11*
X140140000Y-90590000D02*
X140190000Y-90590000D01*
X140140000Y-92410000D02*
X140140000Y-90590000D01*
X140190000Y-92410000D02*
X140140000Y-92410000D01*
X143210000Y-90590000D02*
X143260000Y-90590000D01*
X143260000Y-90590000D02*
X143260000Y-92410000D01*
X143260000Y-92410000D02*
X143210000Y-92410000D01*
X140190000Y-92950000D02*
X139860000Y-93190000D01*
X139860000Y-92710000D01*
X140190000Y-92950000D01*
G36*
X140190000Y-92950000D02*
G01*
X139860000Y-93190000D01*
X139860000Y-92710000D01*
X140190000Y-92950000D01*
G37*
%TO.C,C3*%
X143888748Y-97790000D02*
X145311252Y-97790000D01*
X143888748Y-99610000D02*
X145311252Y-99610000D01*
%TO.C,R2*%
X145965000Y-91538748D02*
X145965000Y-92061252D01*
X147435000Y-91538748D02*
X147435000Y-92061252D01*
%TO.C,R4*%
X138165000Y-91338748D02*
X138165000Y-91861252D01*
X139635000Y-91338748D02*
X139635000Y-91861252D01*
%TO.C,R3*%
X145965000Y-95338748D02*
X145965000Y-95861252D01*
X147435000Y-95338748D02*
X147435000Y-95861252D01*
%TO.C,C1*%
X143965000Y-91338748D02*
X143965000Y-91861252D01*
X145435000Y-91338748D02*
X145435000Y-91861252D01*
%TO.C,J1*%
X128540000Y-89900000D02*
X128540000Y-99300000D01*
X130440000Y-89900000D02*
X128540000Y-89900000D01*
X130440000Y-99300000D02*
X128540000Y-99300000D01*
X134340000Y-89900000D02*
X132340000Y-89900000D01*
X134340000Y-99300000D02*
X132340000Y-99300000D01*
%TO.C,D1*%
X141760000Y-98050000D02*
X138500000Y-98050000D01*
X141760000Y-99750000D02*
X138500000Y-99750000D01*
X141760000Y-99750000D02*
X141760000Y-98050000D01*
%TO.C,F1*%
X139597936Y-93790000D02*
X140802064Y-93790000D01*
X139597936Y-95610000D02*
X140802064Y-95610000D01*
%TO.C,J3*%
X147900000Y-95100000D02*
X150300000Y-95100000D01*
X147900000Y-97500000D02*
X147900000Y-95100000D01*
X150300000Y-95100000D02*
X150300000Y-97500000D01*
X150300000Y-97500000D02*
X147900000Y-97500000D01*
%TO.C,C2*%
X143965000Y-95338748D02*
X143965000Y-95861252D01*
X145435000Y-95338748D02*
X145435000Y-95861252D01*
%TO.C,R5*%
X139861252Y-96165000D02*
X139338748Y-96165000D01*
X139861252Y-97635000D02*
X139338748Y-97635000D01*
%TO.C,J2*%
X147900000Y-91900000D02*
X150300000Y-91900000D01*
X147900000Y-94300000D02*
X147900000Y-91900000D01*
X150300000Y-91900000D02*
X150300000Y-94300000D01*
X150300000Y-94300000D02*
X147900000Y-94300000D01*
%TD*%
M02*
