M48
; DRILL file KiCad 10.0.5 date 2026-08-09T08:35:51
; FORMAT={-:-/ absolute / metric / decimal}
; #@! TF.CreationDate,2026-08-09T08:35:51+02:00
; #@! TF.GenerationSoftware,Kicad,Pcbnew,10.0.5
; #@! TF.FileFunction,Plated,1,2,PTH
FMAT,2
METRIC
; #@! TA.AperFunction,Plated,PTH,ViaDrill
T1C0.200
; #@! TA.AperFunction,Plated,PTH,ViaDrill
T2C0.300
; #@! TA.AperFunction,Plated,PTH,ComponentDrill
T3C0.600
%
G90
G05
T1
X138.562Y-96.9
X138.9Y-92.638
X140.75Y-90.362
X140.75Y-92.638
X141.7Y-90.362
X142.65Y-90.362
X144.7Y-90.65
X144.7Y-94.562
X146.162Y-98.7
X146.7Y-90.763
T2
X136.485Y-92.15
X136.485Y-97.05
X138.713Y-94.8
X140.637Y-96.9
X149.1Y-93.1
T3
G00X131.69Y-90.28
M15
G01X131.09Y-90.28
M16
G05
G00X131.69Y-98.92
M15
G01X131.09Y-98.92
M16
G05
G00X136.12Y-90.28
M15
G01X135.02Y-90.28
M16
G05
G00X136.12Y-98.92
M15
G01X135.02Y-98.92
M16
G05
M30
