%TF.GenerationSoftware,KiCad,Pcbnew,10.0.5*%
%TF.CreationDate,2026-08-09T08:35:44+02:00*%
%TF.ProjectId,USB-C2easypads_kicad,5553422d-4332-4656-9173-79706164735f,rev?*%
%TF.SameCoordinates,Original*%
%TF.FileFunction,Copper,L1,Top*%
%TF.FilePolarity,Positive*%
%FSLAX46Y46*%
G04 Gerber Fmt 4.6, Leading zero omitted, Abs format (unit mm)*
G04 Created by KiCad (PCBNEW 10.0.5) date 2026-08-09 08:35:44*
%MOMM*%
%LPD*%
G01*
G04 APERTURE LIST*
G04 Aperture macros list*
%AMRoundRect*
0 Rectangle with rounded corners*
0 $1 Rounding radius*
0 $2 $3 $4 $5 $6 $7 $8 $9 X,Y pos of 4 corners*
0 Add a 4 corners polygon primitive as box body*
4,1,4,$2,$3,$4,$5,$6,$7,$8,$9,$2,$3,0*
0 Add four circle primitives for the rounded corners*
1,1,$1+$1,$2,$3*
1,1,$1+$1,$4,$5*
1,1,$1+$1,$6,$7*
1,1,$1+$1,$8,$9*
0 Add four rect primitives between the rounded corners*
20,1,$1+$1,$2,$3,$4,$5,0*
20,1,$1+$1,$4,$5,$6,$7,0*
20,1,$1+$1,$6,$7,$8,$9,0*
20,1,$1+$1,$8,$9,$2,$3,0*%
G04 Aperture macros list end*
%TA.AperFunction,SMDPad,CuDef*%
%ADD10RoundRect,0.150000X0.150000X-0.512500X0.150000X0.512500X-0.150000X0.512500X-0.150000X-0.512500X0*%
%TD*%
%TA.AperFunction,SMDPad,CuDef*%
%ADD11RoundRect,0.250000X-0.412500X-0.650000X0.412500X-0.650000X0.412500X0.650000X-0.412500X0.650000X0*%
%TD*%
%TA.AperFunction,SMDPad,CuDef*%
%ADD12RoundRect,0.250000X-0.475000X0.337500X-0.475000X-0.337500X0.475000X-0.337500X0.475000X0.337500X0*%
%TD*%
%TA.AperFunction,SMDPad,CuDef*%
%ADD13RoundRect,0.250000X-0.475000X0.250000X-0.475000X-0.250000X0.475000X-0.250000X0.475000X0.250000X0*%
%TD*%
%TA.AperFunction,SMDPad,CuDef*%
%ADD14RoundRect,0.150000X-0.575000X0.150000X-0.575000X-0.150000X0.575000X-0.150000X0.575000X0.150000X0*%
%TD*%
%TA.AperFunction,SMDPad,CuDef*%
%ADD15RoundRect,0.075000X-0.650000X0.075000X-0.650000X-0.075000X0.650000X-0.075000X0.650000X0.075000X0*%
%TD*%
%TA.AperFunction,ComponentPad*%
%ADD16O,2.100000X1.000000*%
%TD*%
%TA.AperFunction,ComponentPad*%
%ADD17O,1.600000X1.000000*%
%TD*%
%TA.AperFunction,SMDPad,CuDef*%
%ADD18RoundRect,0.250000X0.250000X0.250000X-0.250000X0.250000X-0.250000X-0.250000X0.250000X-0.250000X0*%
%TD*%
%TA.AperFunction,SMDPad,CuDef*%
%ADD19RoundRect,0.250001X-0.462499X-0.624999X0.462499X-0.624999X0.462499X0.624999X-0.462499X0.624999X0*%
%TD*%
%TA.AperFunction,SMDPad,CuDef*%
%ADD20R,2.000000X2.000000*%
%TD*%
%TA.AperFunction,SMDPad,CuDef*%
%ADD21RoundRect,0.250000X0.337500X0.475000X-0.337500X0.475000X-0.337500X-0.475000X0.337500X-0.475000X0*%
%TD*%
%TA.AperFunction,ViaPad*%
%ADD22C,0.400000*%
%TD*%
%TA.AperFunction,ViaPad*%
%ADD23C,0.600000*%
%TD*%
%TA.AperFunction,Conductor*%
%ADD24C,0.200000*%
%TD*%
%TA.AperFunction,Conductor*%
%ADD25C,0.600000*%
%TD*%
%TA.AperFunction,Conductor*%
%ADD26C,0.400000*%
%TD*%
G04 APERTURE END LIST*
D10*
%TO.P,U1,1,VDD_1*%
%TO.N,Net-(U1-VDD)*%
X140750000Y-92637500D03*
%TO.P,U1,2,GND_2*%
%TO.N,GND*%
X141700000Y-92637500D03*
%TO.P,U1,3,~{PG}_3*%
%TO.N,unconnected-(U1-~{PG}-Pad3)*%
X142650000Y-92637500D03*
%TO.P,U1,4,CC1_4*%
%TO.N,/CC1*%
X142650000Y-90362500D03*
%TO.P,U1,5,CC2_5*%
%TO.N,/CC2*%
X141700000Y-90362500D03*
%TO.P,U1,6,CFG_6*%
%TO.N,Net-(U1-CFG)*%
X140750000Y-90362500D03*
%TD*%
D11*
%TO.P,C3,1*%
%TO.N,VBUS*%
X143037500Y-98700000D03*
%TO.P,C3,2*%
%TO.N,GND*%
X146162500Y-98700000D03*
%TD*%
D12*
%TO.P,R2,1*%
%TO.N,Net-(U1-CFG)*%
X146700000Y-90762500D03*
%TO.P,R2,2*%
%TO.N,Net-(U1-VDD)*%
X146700000Y-92837500D03*
%TD*%
%TO.P,R4,1*%
%TO.N,GND*%
X138900000Y-90562500D03*
%TO.P,R4,2*%
%TO.N,/CC1*%
X138900000Y-92637500D03*
%TD*%
%TO.P,R3,1*%
%TO.N,Net-(U1-VDD)*%
X146700000Y-94562500D03*
%TO.P,R3,2*%
%TO.N,VBUS*%
X146700000Y-96637500D03*
%TD*%
D13*
%TO.P,C1,1*%
%TO.N,Net-(U1-VDD)*%
X144700000Y-90650000D03*
%TO.P,C1,2*%
%TO.N,GND*%
X144700000Y-92550000D03*
%TD*%
D14*
%TO.P,J1,A1,GND_A1*%
%TO.N,GND*%
X136485000Y-91350000D03*
%TO.P,J1,A4,VBUS_A4*%
%TO.N,/USB_VBUS*%
X136485000Y-92150000D03*
D15*
%TO.P,J1,A5,CC1_A5*%
%TO.N,/CC1*%
X136485000Y-93350000D03*
%TO.P,J1,A6,D+_A6*%
%TO.N,unconnected-(J1-D+-PadA6)*%
X136485000Y-94350000D03*
%TO.P,J1,A7,D-_A7*%
%TO.N,unconnected-(J1-D--PadA7)*%
X136485000Y-94850000D03*
%TO.P,J1,A8,SBU1_A8*%
%TO.N,unconnected-(J1-SBU1-PadA8)*%
X136485000Y-95850000D03*
D14*
%TO.P,J1,A9,VBUS_A9*%
%TO.N,/USB_VBUS*%
X136485000Y-97050000D03*
%TO.P,J1,A12,GND_A12*%
%TO.N,GND*%
X136485000Y-97850000D03*
%TO.P,J1,B1,GND_B1*%
X136485000Y-97850000D03*
%TO.P,J1,B4,VBUS_B4*%
%TO.N,/USB_VBUS*%
X136485000Y-97050000D03*
D15*
%TO.P,J1,B5,CC2_B5*%
%TO.N,/CC2*%
X136485000Y-96350000D03*
%TO.P,J1,B6,D+_B6*%
%TO.N,unconnected-(J1-D+-PadB6)*%
X136485000Y-95350000D03*
%TO.P,J1,B7,D-_B7*%
%TO.N,unconnected-(J1-D--PadB7)*%
X136485000Y-93850000D03*
%TO.P,J1,B8,SBU2_B8*%
%TO.N,unconnected-(J1-SBU2-PadB8)*%
X136485000Y-92850000D03*
D14*
%TO.P,J1,B9,VBUS_B9*%
%TO.N,/USB_VBUS*%
X136485000Y-92150000D03*
%TO.P,J1,B12,GND_B12*%
%TO.N,GND*%
X136485000Y-91350000D03*
D16*
%TO.P,J1,SH,SHIELD_SH*%
X135570000Y-90280000D03*
D17*
X131390000Y-90280000D03*
D16*
X135570000Y-98920000D03*
D17*
X131390000Y-98920000D03*
%TD*%
D18*
%TO.P,D1,1,K_1*%
%TO.N,VBUS*%
X141000000Y-98900000D03*
%TO.P,D1,2,A_2*%
%TO.N,GND*%
X138500000Y-98900000D03*
%TD*%
D19*
%TO.P,F1,1*%
%TO.N,/USB_VBUS*%
X138712500Y-94700000D03*
%TO.P,F1,2*%
%TO.N,VBUS*%
X141687500Y-94700000D03*
%TD*%
D20*
%TO.P,J3,1,Pin_1_1*%
%TO.N,VBUS*%
X149100000Y-96300000D03*
%TD*%
D12*
%TO.P,C2,1*%
%TO.N,GND*%
X144700000Y-94562500D03*
%TO.P,C2,2*%
%TO.N,VBUS*%
X144700000Y-96637500D03*
%TD*%
D21*
%TO.P,R5,1*%
%TO.N,GND*%
X140637500Y-96900000D03*
%TO.P,R5,2*%
%TO.N,/CC2*%
X138562500Y-96900000D03*
%TD*%
D20*
%TO.P,J2,1,Pin_1_1*%
%TO.N,GND*%
X149100000Y-93100000D03*
%TD*%
D22*
%TO.N,Net-(U1-VDD)*%
X140750000Y-92637500D03*
X144700000Y-90650000D03*
%TO.N,GND*%
X144700000Y-94562500D03*
X146162500Y-98700000D03*
D23*
X149100000Y-93100000D03*
X140637500Y-96900000D03*
D22*
%TO.N,/CC1*%
X138900000Y-92637500D03*
X142650000Y-90362500D03*
%TO.N,/CC2*%
X141700000Y-90362500D03*
X138562500Y-96900000D03*
%TO.N,Net-(U1-CFG)*%
X146700000Y-90762500D03*
X140750000Y-90362500D03*
D23*
%TO.N,/USB_VBUS*%
X138712500Y-94800000D03*
X136485000Y-97050000D03*
X136485000Y-92150000D03*
%TD*%
%TO.N,Net-(U1-VDD)*%
D24*
X146700000Y-92837500D02*
X146700000Y-92650000D01*
X146700000Y-92837500D02*
X146700000Y-94562500D01*
X146700000Y-92650000D02*
X144700000Y-90650000D01*
%TO.N,GND*%
D25*
X136485000Y-97850000D02*
X137450000Y-97850000D01*
D24*
X144700000Y-92550000D02*
X144700000Y-94562500D01*
D25*
X135570000Y-90435000D02*
X136017500Y-90882500D01*
D24*
X143375000Y-93962500D02*
X143975000Y-94562500D01*
X138637500Y-98900000D02*
X138500000Y-98900000D01*
X135570000Y-90280000D02*
X135570000Y-90435000D01*
D25*
X136017500Y-90882500D02*
X136485000Y-91350000D01*
D26*
X140637500Y-96900000D02*
X138637500Y-98900000D01*
D24*
X137272500Y-90562500D02*
X136485000Y-91350000D01*
D25*
X137450000Y-97850000D02*
X138500000Y-98900000D01*
D24*
X141700000Y-91975001D02*
X142000001Y-91675000D01*
D25*
X136017500Y-98317500D02*
X136485000Y-97850000D01*
X136017500Y-98317500D02*
X135415000Y-98920000D01*
D24*
X138900000Y-90562500D02*
X137272500Y-90562500D01*
X143375000Y-92059448D02*
X143375000Y-93962500D01*
D25*
X135415000Y-90280000D02*
X131390000Y-90280000D01*
X135570000Y-98765000D02*
X136017500Y-98317500D01*
X136017500Y-90882500D02*
X135415000Y-90280000D01*
D24*
X140012500Y-91675000D02*
X141399999Y-91675000D01*
D25*
X135415000Y-98920000D02*
X131390000Y-98920000D01*
D24*
X143975000Y-94562500D02*
X144700000Y-94562500D01*
X135570000Y-98920000D02*
X135570000Y-98765000D01*
X142000001Y-91675000D02*
X142990552Y-91675000D01*
X138900000Y-90562500D02*
X140012500Y-91675000D01*
X142990552Y-91675000D02*
X143375000Y-92059448D01*
X141399999Y-91675000D02*
X141700000Y-91975001D01*
X141700000Y-92637500D02*
X141700000Y-91975001D01*
%TO.N,/CC1*%
X138187500Y-93350000D02*
X136485000Y-93350000D01*
X138900000Y-92637500D02*
X138187500Y-93350000D01*
%TO.N,/CC2*%
X136485000Y-96350000D02*
X138012500Y-96350000D01*
X138012500Y-96350000D02*
X138562500Y-96900000D01*
X139015000Y-96350000D02*
X139015000Y-97385000D01*
%TO.N,VBUS*%
D25*
X142437500Y-98900000D02*
X144700000Y-96637500D01*
X141725000Y-98175000D02*
X141000000Y-98900000D01*
X148762500Y-96637500D02*
X149100000Y-96300000D01*
X141687500Y-94800000D02*
X141725000Y-94837500D01*
X142837500Y-98900000D02*
X143037500Y-98700000D01*
X141000000Y-98900000D02*
X142837500Y-98900000D01*
X141725000Y-94837500D02*
X141725000Y-98175000D01*
X146700000Y-96637500D02*
X148762500Y-96637500D01*
X141000000Y-98900000D02*
X142437500Y-98900000D01*
X144700000Y-96637500D02*
X146700000Y-96637500D01*
%TD*%
%TA.AperFunction,Conductor*%
%TO.N,GND*%
G36*
X130507312Y-89569407D02*
G01*
X130543276Y-89618907D01*
X130543276Y-89680093D01*
X130519125Y-89719504D01*
X130468602Y-89770026D01*
X130468599Y-89770030D01*
X130381048Y-89901058D01*
X130369060Y-89929999D01*
X130369061Y-89930000D01*
X132410939Y-89930000D01*
X132410939Y-89929999D01*
X132398951Y-89901058D01*
X132311400Y-89770030D01*
X132311397Y-89770026D01*
X132260875Y-89719504D01*
X132233098Y-89664987D01*
X132242669Y-89604555D01*
X132285934Y-89561290D01*
X132330879Y-89550500D01*
X134379121Y-89550500D01*
X134437312Y-89569407D01*
X134473276Y-89618907D01*
X134473276Y-89680093D01*
X134449125Y-89719504D01*
X134398602Y-89770026D01*
X134398599Y-89770030D01*
X134311048Y-89901058D01*
X134299060Y-89929999D01*
X134299061Y-89930000D01*
X136840939Y-89930000D01*
X136840939Y-89929999D01*
X136828951Y-89901058D01*
X136741400Y-89770030D01*
X136741397Y-89770026D01*
X136690875Y-89719504D01*
X136663098Y-89664987D01*
X136672669Y-89604555D01*
X136715934Y-89561290D01*
X136760879Y-89550500D01*
X138115272Y-89550500D01*
X138173463Y-89569407D01*
X138209427Y-89618907D01*
X138209427Y-89680093D01*
X138173463Y-89729593D01*
X138158753Y-89737666D01*
X138158807Y-89737761D01*
X138152907Y-89741077D01*
X138032435Y-89832435D01*
X137941080Y-89952904D01*
X137885613Y-90093556D01*
X137875000Y-90181935D01*
X137875000Y-90212499D01*
X137875001Y-90212500D01*
X139924999Y-90212500D01*
X139925000Y-90212499D01*
X139925000Y-90181941D01*
X139924999Y-90181935D01*
X139914386Y-90093556D01*
X139858919Y-89952904D01*
X139767564Y-89832435D01*
X139647092Y-89741077D01*
X139641193Y-89737761D01*
X139642005Y-89736315D01*
X139601210Y-89702658D01*
X139585915Y-89643416D01*
X139608363Y-89586497D01*
X139659980Y-89553643D01*
X139684728Y-89550500D01*
X140197680Y-89550500D01*
X140255871Y-89569407D01*
X140291835Y-89618907D01*
X140291835Y-89680093D01*
X140286621Y-89692980D01*
X140259427Y-89748604D01*
X140254463Y-89782673D01*
X140249500Y-89816740D01*
X140249500Y-90908260D01*
X140252709Y-90930282D01*
X140259427Y-90976395D01*
X140310077Y-91080000D01*
X140310802Y-91081483D01*
X140393517Y-91164198D01*
X140409671Y-91172095D01*
X140498604Y-91215572D01*
X140498605Y-91215572D01*
X140498607Y-91215573D01*
X140566740Y-91225500D01*
X140566743Y-91225500D01*
X140933257Y-91225500D01*
X140933260Y-91225500D01*
X141001393Y-91215573D01*
X141106483Y-91164198D01*
X141154998Y-91115682D01*
X141209513Y-91087907D01*
X141269945Y-91097478D01*
X141295000Y-91115681D01*
X141343517Y-91164198D01*
X141359671Y-91172095D01*
X141448604Y-91215572D01*
X141448605Y-91215572D01*
X141448607Y-91215573D01*
X141516740Y-91225500D01*
X141516743Y-91225500D01*
X141883257Y-91225500D01*
X141883260Y-91225500D01*
X141951393Y-91215573D01*
X142056483Y-91164198D01*
X142104998Y-91115682D01*
X142159513Y-91087907D01*
X142219945Y-91097478D01*
X142245000Y-91115681D01*
X142293517Y-91164198D01*
X142309671Y-91172095D01*
X142398604Y-91215572D01*
X142398605Y-91215572D01*
X142398607Y-91215573D01*
X142466740Y-91225500D01*
X142466743Y-91225500D01*
X142833257Y-91225500D01*
X142833260Y-91225500D01*
X142901393Y-91215573D01*
X143006483Y-91164198D01*
X143089198Y-91081483D01*
X143140573Y-90976393D01*
X143150500Y-90908260D01*
X143150500Y-89816740D01*
X143140573Y-89748607D01*
X143135224Y-89737666D01*
X143113379Y-89692980D01*
X143104808Y-89632398D01*
X143133483Y-89578349D01*
X143188452Y-89551476D01*
X143202320Y-89550500D01*
X146686352Y-89550500D01*
X146738461Y-89565324D01*
X147103538Y-89791324D01*
X147143064Y-89838029D01*
X147147588Y-89899047D01*
X147115383Y-89951071D01*
X147058749Y-89974229D01*
X147051429Y-89974500D01*
X146170725Y-89974500D01*
X146140305Y-89977353D01*
X146140296Y-89977355D01*
X146012116Y-90022207D01*
X145902855Y-90102845D01*
X145902845Y-90102855D01*
X145822207Y-90212115D01*
X145797817Y-90281818D01*
X145760751Y-90330498D01*
X145702150Y-90348094D01*
X145644399Y-90327885D01*
X145610930Y-90281819D01*
X145577793Y-90187118D01*
X145577791Y-90187116D01*
X145577791Y-90187114D01*
X145497154Y-90077855D01*
X145497152Y-90077853D01*
X145497150Y-90077850D01*
X145497146Y-90077847D01*
X145497144Y-90077845D01*
X145387883Y-89997207D01*
X145259703Y-89952355D01*
X145259694Y-89952353D01*
X145229274Y-89949500D01*
X145229266Y-89949500D01*
X144170734Y-89949500D01*
X144170725Y-89949500D01*
X144140305Y-89952353D01*
X144140296Y-89952355D01*
X144012116Y-89997207D01*
X143902855Y-90077845D01*
X143902845Y-90077855D01*
X143822207Y-90187116D01*
X143777355Y-90315296D01*
X143777353Y-90315305D01*
X143774500Y-90345725D01*
X143774500Y-90954274D01*
X143777353Y-90984694D01*
X143777355Y-90984703D01*
X143822207Y-91112883D01*
X143902845Y-91222144D01*
X143902847Y-91222146D01*
X143902850Y-91222150D01*
X143902853Y-91222152D01*
X143902855Y-91222154D01*
X144012116Y-91302792D01*
X144012117Y-91302792D01*
X144012118Y-91302793D01*
X144140301Y-91347646D01*
X144170725Y-91350499D01*
X144170727Y-91350500D01*
X144170734Y-91350500D01*
X144934521Y-91350500D01*
X144992712Y-91369407D01*
X145004525Y-91379496D01*
X145206025Y-91580996D01*
X145233802Y-91635513D01*
X145224231Y-91695945D01*
X145180966Y-91739210D01*
X145136021Y-91750000D01*
X145050001Y-91750000D01*
X145050000Y-91750001D01*
X145050000Y-93349999D01*
X145050001Y-93350000D01*
X145218058Y-93350000D01*
X145218064Y-93349999D01*
X145306443Y-93339386D01*
X145447095Y-93283919D01*
X145567564Y-93192564D01*
X145567567Y-93192561D01*
X145596616Y-93154255D01*
X145646842Y-93119313D01*
X145708015Y-93120566D01*
X145756768Y-93157536D01*
X145774500Y-93214074D01*
X145774500Y-93229274D01*
X145777353Y-93259694D01*
X145777355Y-93259703D01*
X145822207Y-93387883D01*
X145902845Y-93497144D01*
X145902847Y-93497146D01*
X145902850Y-93497150D01*
X145902853Y-93497152D01*
X145902855Y-93497154D01*
X146012116Y-93577792D01*
X146012117Y-93577792D01*
X146012118Y-93577793D01*
X146045635Y-93589521D01*
X146094317Y-93606556D01*
X146142997Y-93643621D01*
X146160594Y-93702222D01*
X146140386Y-93759973D01*
X146094317Y-93793444D01*
X146012116Y-93822207D01*
X145902855Y-93902845D01*
X145902845Y-93902855D01*
X145837168Y-93991845D01*
X145787400Y-94027438D01*
X145726217Y-94026980D01*
X145676987Y-93990647D01*
X145665415Y-93969374D01*
X145658921Y-93952906D01*
X145567564Y-93832435D01*
X145447095Y-93741080D01*
X145306443Y-93685613D01*
X145218064Y-93675000D01*
X145050001Y-93675000D01*
X145050000Y-93675001D01*
X145050000Y-95449999D01*
X145050001Y-95450000D01*
X145218058Y-95450000D01*
X145218064Y-95449999D01*
X145306443Y-95439386D01*
X145447095Y-95383919D01*
X145567564Y-95292564D01*
X145658919Y-95172095D01*
X145665414Y-95155626D01*
X145704350Y-95108428D01*
X145763592Y-95093129D01*
X145820512Y-95115573D01*
X145837168Y-95133154D01*
X145902846Y-95222145D01*
X145902850Y-95222150D01*
X145902853Y-95222152D01*
X145902855Y-95222154D01*
X146012116Y-95302792D01*
X146012117Y-95302792D01*
X146012118Y-95302793D01*
X146140301Y-95347646D01*
X146170725Y-95350499D01*
X146170727Y-95350500D01*
X146170734Y-95350500D01*
X147229273Y-95350500D01*
X147229273Y-95350499D01*
X147259699Y-95347646D01*
X147387882Y-95302793D01*
X147497150Y-95222150D01*
X147577793Y-95112882D01*
X147622646Y-94984699D01*
X147625499Y-94954273D01*
X147625500Y-94954273D01*
X147625500Y-94244086D01*
X147625500Y-94170734D01*
X147622646Y-94140301D01*
X147577793Y-94012118D01*
X147577791Y-94012116D01*
X147577791Y-94012114D01*
X147497154Y-93902855D01*
X147497152Y-93902853D01*
X147497150Y-93902850D01*
X147497146Y-93902847D01*
X147497144Y-93902845D01*
X147387883Y-93822207D01*
X147305682Y-93793444D01*
X147257002Y-93756379D01*
X147239405Y-93697779D01*
X147259613Y-93640027D01*
X147305682Y-93606556D01*
X147324418Y-93600000D01*
X147387882Y-93577793D01*
X147497150Y-93497150D01*
X147577793Y-93387882D01*
X147607557Y-93302819D01*
X147644620Y-93254142D01*
X147703221Y-93236545D01*
X147760973Y-93256753D01*
X147795817Y-93307047D01*
X147800000Y-93335520D01*
X147800000Y-94057784D01*
X147820714Y-94210196D01*
X147848213Y-94272477D01*
X147927522Y-94351786D01*
X148030127Y-94397090D01*
X148055203Y-94399999D01*
X148749998Y-94399999D01*
X148750000Y-94399998D01*
X148750000Y-93450001D01*
X149450000Y-93450001D01*
X149450000Y-94399998D01*
X149450001Y-94399999D01*
X150144790Y-94399999D01*
X150144791Y-94399998D01*
X150169874Y-94397090D01*
X150272477Y-94351786D01*
X150351786Y-94272477D01*
X150397090Y-94169872D01*
X150399999Y-94144797D01*
X150400000Y-94144795D01*
X150400000Y-93450001D01*
X150399999Y-93450000D01*
X149450001Y-93450000D01*
X149450000Y-93450001D01*
X148750000Y-93450001D01*
X148750000Y-91800001D01*
X148749999Y-91800000D01*
X148055210Y-91800000D01*
X148055207Y-91800001D01*
X148030125Y-91802909D01*
X147927522Y-91848213D01*
X147848213Y-91927522D01*
X147802909Y-92030127D01*
X147800000Y-92055202D01*
X147800000Y-92339477D01*
X147781093Y-92397668D01*
X147731593Y-92433632D01*
X147670407Y-92433632D01*
X147620907Y-92397668D01*
X147607556Y-92372175D01*
X147577792Y-92287116D01*
X147497154Y-92177855D01*
X147497152Y-92177853D01*
X147497150Y-92177850D01*
X147497146Y-92177847D01*
X147497144Y-92177845D01*
X147387883Y-92097207D01*
X147259703Y-92052355D01*
X147259694Y-92052353D01*
X147229274Y-92049500D01*
X147229266Y-92049500D01*
X146565479Y-92049500D01*
X146507288Y-92030593D01*
X146495475Y-92020504D01*
X146194475Y-91719504D01*
X146166698Y-91664987D01*
X146176269Y-91604555D01*
X146219534Y-91561290D01*
X146264479Y-91550500D01*
X147229273Y-91550500D01*
X147229273Y-91550499D01*
X147259699Y-91547646D01*
X147387882Y-91502793D01*
X147497150Y-91422150D01*
X147577793Y-91312882D01*
X147622646Y-91184699D01*
X147625499Y-91154273D01*
X147625500Y-91154273D01*
X147625500Y-90370727D01*
X147625499Y-90370725D01*
X147623377Y-90348094D01*
X147622646Y-90340301D01*
X147613898Y-90315301D01*
X147613424Y-90313945D01*
X147612051Y-90252775D01*
X147646895Y-90202480D01*
X147704647Y-90182272D01*
X147758975Y-90197070D01*
X150052424Y-91616824D01*
X150091950Y-91663529D01*
X150096474Y-91724547D01*
X150064269Y-91776571D01*
X150007635Y-91799729D01*
X150000315Y-91800000D01*
X149450001Y-91800000D01*
X149450000Y-91800001D01*
X149450000Y-92749999D01*
X149450001Y-92750000D01*
X150399998Y-92750000D01*
X150399999Y-92749999D01*
X150399999Y-92055210D01*
X150399998Y-92055208D01*
X150396232Y-92022726D01*
X150398084Y-92022511D01*
X150400591Y-91970959D01*
X150438915Y-91923264D01*
X150497956Y-91907204D01*
X150545255Y-91921910D01*
X150635612Y-91977845D01*
X150652609Y-91988367D01*
X150692135Y-92035072D01*
X150699500Y-92072543D01*
X150699500Y-97327683D01*
X150680593Y-97385874D01*
X150652682Y-97411814D01*
X150381501Y-97580013D01*
X150381502Y-97580014D01*
X150229916Y-97674036D01*
X150229914Y-97674036D01*
X147273199Y-99507948D01*
X147213783Y-99522552D01*
X147157129Y-99499443D01*
X147124879Y-99447448D01*
X147122724Y-99412008D01*
X147124999Y-99393068D01*
X147125000Y-99393058D01*
X147125000Y-99050001D01*
X147124999Y-99050000D01*
X145200001Y-99050000D01*
X145200000Y-99050001D01*
X145200000Y-99393064D01*
X145210614Y-99481446D01*
X145243241Y-99564181D01*
X145247000Y-99625251D01*
X145214145Y-99676867D01*
X145157226Y-99699313D01*
X145151144Y-99699500D01*
X143944516Y-99699500D01*
X143886325Y-99680593D01*
X143850361Y-99631093D01*
X143850361Y-99569907D01*
X143851071Y-99567803D01*
X143872015Y-99507948D01*
X143897646Y-99434699D01*
X143900499Y-99404273D01*
X143900500Y-99404273D01*
X143900500Y-98185821D01*
X143919407Y-98127630D01*
X143929496Y-98115817D01*
X144590817Y-97454496D01*
X144645334Y-97426719D01*
X144660821Y-97425500D01*
X145229273Y-97425500D01*
X145229273Y-97425499D01*
X145259699Y-97422646D01*
X145387882Y-97377793D01*
X145497150Y-97297150D01*
X145538835Y-97240669D01*
X145582199Y-97181913D01*
X145584004Y-97183245D01*
X145620189Y-97148128D01*
X145663810Y-97138000D01*
X145736190Y-97138000D01*
X145794381Y-97156907D01*
X145816741Y-97182695D01*
X145817801Y-97181913D01*
X145902845Y-97297144D01*
X145902847Y-97297146D01*
X145902850Y-97297150D01*
X145902853Y-97297152D01*
X145902854Y-97297153D01*
X145935633Y-97321345D01*
X145971226Y-97371112D01*
X145970768Y-97432296D01*
X145934435Y-97481525D01*
X145876845Y-97500000D01*
X145706935Y-97500000D01*
X145618556Y-97510613D01*
X145477904Y-97566080D01*
X145357435Y-97657435D01*
X145266080Y-97777904D01*
X145210613Y-97918556D01*
X145200000Y-98006935D01*
X145200000Y-98349999D01*
X145200001Y-98350000D01*
X147124999Y-98350000D01*
X147125000Y-98349999D01*
X147125000Y-98006941D01*
X147124999Y-98006935D01*
X147114386Y-97918556D01*
X147058919Y-97777904D01*
X146967564Y-97657435D01*
X146967561Y-97657432D01*
X146896288Y-97603384D01*
X146861345Y-97553157D01*
X146862599Y-97491985D01*
X146899569Y-97443232D01*
X146956107Y-97425500D01*
X147229273Y-97425500D01*
X147229273Y-97425499D01*
X147259699Y-97422646D01*
X147387882Y-97377793D01*
X147497150Y-97297150D01*
X147538835Y-97240669D01*
X147582199Y-97181913D01*
X147584004Y-97183245D01*
X147620189Y-97148128D01*
X147663810Y-97138000D01*
X147800500Y-97138000D01*
X147858691Y-97156907D01*
X147894655Y-97206407D01*
X147899500Y-97237000D01*
X147899500Y-97319746D01*
X147899501Y-97319758D01*
X147911132Y-97378227D01*
X147911134Y-97378233D01*
X147954566Y-97443232D01*
X147955448Y-97444552D01*
X148021769Y-97488867D01*
X148066231Y-97497711D01*
X148080241Y-97500498D01*
X148080246Y-97500498D01*
X148080252Y-97500500D01*
X148080253Y-97500500D01*
X150119747Y-97500500D01*
X150119748Y-97500500D01*
X150119749Y-97500499D01*
X150119755Y-97500499D01*
X150129017Y-97498656D01*
X150178231Y-97488867D01*
X150244552Y-97444552D01*
X150288867Y-97378231D01*
X150300500Y-97319748D01*
X150300500Y-95280252D01*
X150288867Y-95221769D01*
X150244552Y-95155448D01*
X150243885Y-95155002D01*
X150178233Y-95111134D01*
X150178231Y-95111133D01*
X150178228Y-95111132D01*
X150178227Y-95111132D01*
X150119758Y-95099501D01*
X150119748Y-95099500D01*
X148080252Y-95099500D01*
X148080251Y-95099500D01*
X148080241Y-95099501D01*
X148021772Y-95111132D01*
X148021766Y-95111134D01*
X147955451Y-95155445D01*
X147955445Y-95155451D01*
X147911134Y-95221766D01*
X147911132Y-95221772D01*
X147899501Y-95280241D01*
X147899500Y-95280253D01*
X147899500Y-96038000D01*
X147880593Y-96096191D01*
X147831093Y-96132155D01*
X147800500Y-96137000D01*
X147663810Y-96137000D01*
X147605619Y-96118093D01*
X147583258Y-96092304D01*
X147582199Y-96093087D01*
X147497154Y-95977855D01*
X147497152Y-95977853D01*
X147497150Y-95977850D01*
X147497146Y-95977847D01*
X147497144Y-95977845D01*
X147387883Y-95897207D01*
X147259703Y-95852355D01*
X147259694Y-95852353D01*
X147229274Y-95849500D01*
X147229266Y-95849500D01*
X146170734Y-95849500D01*
X146170725Y-95849500D01*
X146140305Y-95852353D01*
X146140296Y-95852355D01*
X146012116Y-95897207D01*
X145902855Y-95977845D01*
X145902845Y-95977855D01*
X145817801Y-96093087D01*
X145815995Y-96091754D01*
X145779811Y-96126872D01*
X145736190Y-96137000D01*
X145663810Y-96137000D01*
X145605619Y-96118093D01*
X145583258Y-96092304D01*
X145582199Y-96093087D01*
X145497154Y-95977855D01*
X145497152Y-95977853D01*
X145497150Y-95977850D01*
X145497146Y-95977847D01*
X145497144Y-95977845D01*
X145387883Y-95897207D01*
X145259703Y-95852355D01*
X145259694Y-95852353D01*
X145229274Y-95849500D01*
X145229266Y-95849500D01*
X144170734Y-95849500D01*
X144170725Y-95849500D01*
X144140305Y-95852353D01*
X144140296Y-95852355D01*
X144012116Y-95897207D01*
X143902855Y-95977845D01*
X143902845Y-95977855D01*
X143822207Y-96087116D01*
X143777355Y-96215296D01*
X143777353Y-96215305D01*
X143774500Y-96245725D01*
X143774500Y-96814178D01*
X143755593Y-96872369D01*
X143745504Y-96884182D01*
X143059182Y-97570504D01*
X143004665Y-97598281D01*
X142989178Y-97599500D01*
X142570725Y-97599500D01*
X142540305Y-97602353D01*
X142540296Y-97602355D01*
X142412116Y-97647207D01*
X142383287Y-97668484D01*
X142325239Y-97687825D01*
X142266909Y-97669353D01*
X142230576Y-97620123D01*
X142225500Y-97588828D01*
X142225500Y-95846109D01*
X142244407Y-95787918D01*
X142291802Y-95752665D01*
X142315321Y-95744434D01*
X142362882Y-95727793D01*
X142472150Y-95647150D01*
X142547539Y-95545001D01*
X142552791Y-95537885D01*
X142552791Y-95537884D01*
X142552793Y-95537882D01*
X142597646Y-95409698D01*
X142600499Y-95379272D01*
X142600500Y-95379272D01*
X142600500Y-94912501D01*
X143675000Y-94912501D01*
X143675000Y-94943064D01*
X143685613Y-95031443D01*
X143741080Y-95172095D01*
X143832435Y-95292564D01*
X143952904Y-95383919D01*
X144093556Y-95439386D01*
X144181935Y-95449999D01*
X144181942Y-95450000D01*
X144349999Y-95450000D01*
X144350000Y-95449999D01*
X144350000Y-94912501D01*
X144349999Y-94912500D01*
X143675001Y-94912500D01*
X143675000Y-94912501D01*
X142600500Y-94912501D01*
X142600500Y-94871493D01*
X142600499Y-94181935D01*
X143675000Y-94181935D01*
X143675000Y-94212499D01*
X143675001Y-94212500D01*
X144349999Y-94212500D01*
X144350000Y-94212499D01*
X144350000Y-93675001D01*
X144349999Y-93675000D01*
X144181935Y-93675000D01*
X144093556Y-93685613D01*
X143952904Y-93741080D01*
X143832435Y-93832435D01*
X143741080Y-93952904D01*
X143685613Y-94093556D01*
X143675000Y-94181935D01*
X142600499Y-94181935D01*
X142600499Y-94178981D01*
X142600499Y-94020734D01*
X142599357Y-94008562D01*
X142597646Y-93990302D01*
X142552793Y-93862118D01*
X142552791Y-93862116D01*
X142552791Y-93862114D01*
X142472154Y-93752855D01*
X142472152Y-93752853D01*
X142472150Y-93752850D01*
X142472146Y-93752847D01*
X142472144Y-93752845D01*
X142365291Y-93673984D01*
X142329698Y-93624216D01*
X142330156Y-93563033D01*
X142366489Y-93513803D01*
X142424820Y-93495332D01*
X142438351Y-93496363D01*
X142466740Y-93500500D01*
X142466741Y-93500500D01*
X142833257Y-93500500D01*
X142833260Y-93500500D01*
X142901393Y-93490573D01*
X143006483Y-93439198D01*
X143089198Y-93356483D01*
X143140573Y-93251393D01*
X143150500Y-93183260D01*
X143150500Y-92900000D01*
X143681838Y-92900000D01*
X143685613Y-92931443D01*
X143741080Y-93072095D01*
X143832435Y-93192564D01*
X143952904Y-93283919D01*
X144093556Y-93339386D01*
X144181935Y-93349999D01*
X144181942Y-93350000D01*
X144349999Y-93350000D01*
X144350000Y-93349999D01*
X144350000Y-92900001D01*
X144349999Y-92900000D01*
X143681838Y-92900000D01*
X143150500Y-92900000D01*
X143150500Y-92200000D01*
X143681838Y-92200000D01*
X144349999Y-92200000D01*
X144350000Y-92199999D01*
X144350000Y-91750001D01*
X144349999Y-91750000D01*
X144181935Y-91750000D01*
X144093556Y-91760613D01*
X143952904Y-91816080D01*
X143832435Y-91907435D01*
X143741080Y-92027904D01*
X143685613Y-92168556D01*
X143681838Y-92200000D01*
X143150500Y-92200000D01*
X143150500Y-92091740D01*
X143140573Y-92023607D01*
X143140142Y-92022726D01*
X143093600Y-91927522D01*
X143089198Y-91918517D01*
X143006483Y-91835802D01*
X143006481Y-91835801D01*
X142901395Y-91784427D01*
X142874139Y-91780456D01*
X142833260Y-91774500D01*
X142466740Y-91774500D01*
X142432673Y-91779463D01*
X142398604Y-91784427D01*
X142295877Y-91834648D01*
X142235295Y-91843219D01*
X142181245Y-91814543D01*
X142172741Y-91804494D01*
X142171794Y-91803211D01*
X142171790Y-91803207D01*
X142062645Y-91722653D01*
X142062643Y-91722652D01*
X142000000Y-91700732D01*
X142000000Y-92538500D01*
X141981093Y-92596691D01*
X141931593Y-92632655D01*
X141901000Y-92637500D01*
X141499000Y-92637500D01*
X141440809Y-92618593D01*
X141404845Y-92569093D01*
X141400000Y-92538500D01*
X141400000Y-91700732D01*
X141337356Y-91722652D01*
X141337350Y-91722655D01*
X141228210Y-91803205D01*
X141228205Y-91803210D01*
X141227251Y-91804503D01*
X141226063Y-91805351D01*
X141222966Y-91808450D01*
X141222451Y-91807935D01*
X141177480Y-91840091D01*
X141116297Y-91839627D01*
X141104129Y-91834651D01*
X141039199Y-91802909D01*
X141001394Y-91784427D01*
X140984359Y-91781945D01*
X140933260Y-91774500D01*
X140566740Y-91774500D01*
X140532673Y-91779463D01*
X140498604Y-91784427D01*
X140393518Y-91835801D01*
X140310801Y-91918518D01*
X140259427Y-92023604D01*
X140255238Y-92052355D01*
X140249500Y-92091740D01*
X140249500Y-93183260D01*
X140250856Y-93192564D01*
X140259427Y-93251395D01*
X140284569Y-93302823D01*
X140310802Y-93356483D01*
X140393517Y-93439198D01*
X140447285Y-93465483D01*
X140498604Y-93490572D01*
X140498605Y-93490572D01*
X140498607Y-93490573D01*
X140566740Y-93500500D01*
X140566743Y-93500500D01*
X140933259Y-93500500D01*
X140933260Y-93500500D01*
X140933260Y-93500499D01*
X140936832Y-93500241D01*
X140936960Y-93502009D01*
X140990799Y-93511219D01*
X141033528Y-93555013D01*
X141042354Y-93615558D01*
X141013907Y-93669729D01*
X141003559Y-93678523D01*
X140902855Y-93752845D01*
X140902845Y-93752855D01*
X140822208Y-93862114D01*
X140777353Y-93990305D01*
X140774500Y-94020726D01*
X140774500Y-95379265D01*
X140777353Y-95409694D01*
X140777353Y-95409696D01*
X140777354Y-95409698D01*
X140792204Y-95452137D01*
X140822208Y-95537885D01*
X140902845Y-95647144D01*
X140902847Y-95647146D01*
X140902850Y-95647150D01*
X140902853Y-95647152D01*
X140902855Y-95647154D01*
X140990089Y-95711536D01*
X141025682Y-95761304D01*
X141025224Y-95822487D01*
X141001305Y-95861194D01*
X140987500Y-95874999D01*
X140987500Y-97924999D01*
X140987501Y-97925000D01*
X141018058Y-97925000D01*
X141021020Y-97924823D01*
X141021088Y-97925963D01*
X141076931Y-97936943D01*
X141118564Y-97981780D01*
X141125890Y-98042525D01*
X141098754Y-98093430D01*
X141021682Y-98170503D01*
X140967166Y-98198281D01*
X140951678Y-98199500D01*
X140695725Y-98199500D01*
X140665305Y-98202353D01*
X140665296Y-98202355D01*
X140537116Y-98247207D01*
X140427855Y-98327845D01*
X140427845Y-98327855D01*
X140347207Y-98437116D01*
X140302355Y-98565296D01*
X140302353Y-98565305D01*
X140299500Y-98595725D01*
X140299500Y-99204274D01*
X140302353Y-99234694D01*
X140302355Y-99234703D01*
X140347207Y-99362883D01*
X140427845Y-99472144D01*
X140427847Y-99472146D01*
X140427850Y-99472150D01*
X140427853Y-99472152D01*
X140427855Y-99472154D01*
X140493829Y-99520845D01*
X140529422Y-99570612D01*
X140528964Y-99631796D01*
X140492631Y-99681026D01*
X140435041Y-99699500D01*
X139222878Y-99699500D01*
X139164687Y-99680593D01*
X139128723Y-99631093D01*
X139128723Y-99569907D01*
X139143994Y-99540681D01*
X139233919Y-99422097D01*
X139289386Y-99281443D01*
X139293162Y-99250000D01*
X137706838Y-99250000D01*
X137710613Y-99281443D01*
X137766080Y-99422097D01*
X137856006Y-99540681D01*
X137876101Y-99598472D01*
X137858390Y-99657038D01*
X137809637Y-99694008D01*
X137777122Y-99699500D01*
X136710879Y-99699500D01*
X136652688Y-99680593D01*
X136616724Y-99631093D01*
X136616724Y-99569907D01*
X136640875Y-99530496D01*
X136741397Y-99429973D01*
X136741400Y-99429969D01*
X136828951Y-99298941D01*
X136840939Y-99270000D01*
X134299061Y-99270000D01*
X134311048Y-99298941D01*
X134398599Y-99429969D01*
X134398602Y-99429973D01*
X134499125Y-99530496D01*
X134526902Y-99585013D01*
X134517331Y-99645445D01*
X134474066Y-99688710D01*
X134429121Y-99699500D01*
X132280879Y-99699500D01*
X132222688Y-99680593D01*
X132186724Y-99631093D01*
X132186724Y-99569907D01*
X132210875Y-99530496D01*
X132311397Y-99429973D01*
X132311400Y-99429969D01*
X132398951Y-99298941D01*
X132410939Y-99270000D01*
X130369061Y-99270000D01*
X130381048Y-99298941D01*
X130468599Y-99429969D01*
X130468602Y-99429973D01*
X130569125Y-99530496D01*
X130596902Y-99585013D01*
X130587331Y-99645445D01*
X130544066Y-99688710D01*
X130499121Y-99699500D01*
X128649500Y-99699500D01*
X128591309Y-99680593D01*
X128555345Y-99631093D01*
X128550500Y-99600500D01*
X128550500Y-98880504D01*
X130790000Y-98880504D01*
X130790000Y-98959496D01*
X130810444Y-99035796D01*
X130849940Y-99104205D01*
X130905795Y-99160060D01*
X130974204Y-99199556D01*
X131050504Y-99220000D01*
X131729496Y-99220000D01*
X131805796Y-99199556D01*
X131874205Y-99160060D01*
X131930060Y-99104205D01*
X131969556Y-99035796D01*
X131990000Y-98959496D01*
X131990000Y-98880504D01*
X134720000Y-98880504D01*
X134720000Y-98959496D01*
X134740444Y-99035796D01*
X134779940Y-99104205D01*
X134835795Y-99160060D01*
X134904204Y-99199556D01*
X134980504Y-99220000D01*
X136159496Y-99220000D01*
X136235796Y-99199556D01*
X136304205Y-99160060D01*
X136360060Y-99104205D01*
X136399556Y-99035796D01*
X136420000Y-98959496D01*
X136420000Y-98880504D01*
X136399556Y-98804204D01*
X136360060Y-98735795D01*
X136304205Y-98679940D01*
X136235796Y-98640444D01*
X136159496Y-98620000D01*
X134980504Y-98620000D01*
X134904204Y-98640444D01*
X134835795Y-98679940D01*
X134779940Y-98735795D01*
X134740444Y-98804204D01*
X134720000Y-98880504D01*
X131990000Y-98880504D01*
X131969556Y-98804204D01*
X131930060Y-98735795D01*
X131874205Y-98679940D01*
X131805796Y-98640444D01*
X131729496Y-98620000D01*
X131050504Y-98620000D01*
X130974204Y-98640444D01*
X130905795Y-98679940D01*
X130849940Y-98735795D01*
X130810444Y-98804204D01*
X130790000Y-98880504D01*
X128550500Y-98880504D01*
X128550500Y-98569999D01*
X130369060Y-98569999D01*
X130369061Y-98570000D01*
X131039999Y-98570000D01*
X131040000Y-98569999D01*
X131040000Y-98120001D01*
X131740000Y-98120001D01*
X131740000Y-98569999D01*
X131740001Y-98570000D01*
X132410939Y-98570000D01*
X132410939Y-98569999D01*
X134299060Y-98569999D01*
X134299061Y-98570000D01*
X136840939Y-98570000D01*
X136845715Y-98562852D01*
X136845388Y-98554550D01*
X136845030Y-98550000D01*
X137706838Y-98550000D01*
X138149999Y-98550000D01*
X138150000Y-98549999D01*
X138850000Y-98549999D01*
X138850001Y-98550000D01*
X139293161Y-98550000D01*
X139289386Y-98518556D01*
X139233919Y-98377904D01*
X139142564Y-98257435D01*
X139022095Y-98166080D01*
X138881439Y-98110612D01*
X138850000Y-98106836D01*
X138850000Y-98549999D01*
X138150000Y-98549999D01*
X138150000Y-98106836D01*
X138149999Y-98106836D01*
X138118560Y-98110612D01*
X137977904Y-98166080D01*
X137857435Y-98257435D01*
X137766080Y-98377904D01*
X137710613Y-98518556D01*
X137706838Y-98550000D01*
X136845030Y-98550000D01*
X136843133Y-98525887D01*
X136844190Y-98524160D01*
X136844111Y-98522137D01*
X136860087Y-98498220D01*
X136875103Y-98473718D01*
X136876972Y-98472943D01*
X136878098Y-98471259D01*
X136905075Y-98461303D01*
X136931631Y-98450304D01*
X136935268Y-98450161D01*
X136935499Y-98450076D01*
X136935735Y-98450142D01*
X136939397Y-98449999D01*
X137114203Y-98449999D01*
X137144600Y-98447149D01*
X137144602Y-98447149D01*
X137272647Y-98402345D01*
X137381790Y-98321792D01*
X137381792Y-98321790D01*
X137462346Y-98212645D01*
X137462347Y-98212643D01*
X137484268Y-98150000D01*
X136584000Y-98150000D01*
X136525809Y-98131093D01*
X136489845Y-98081593D01*
X136485000Y-98051000D01*
X136485000Y-97649500D01*
X136503907Y-97591309D01*
X136553407Y-97555345D01*
X136584000Y-97550500D01*
X137093258Y-97550500D01*
X137093260Y-97550500D01*
X137093261Y-97550499D01*
X137096583Y-97550259D01*
X137103740Y-97550000D01*
X137484267Y-97550000D01*
X137462347Y-97487356D01*
X137462346Y-97487354D01*
X137406160Y-97411226D01*
X137386818Y-97353178D01*
X137396876Y-97308955D01*
X137400573Y-97301393D01*
X137410500Y-97233260D01*
X137410500Y-96866740D01*
X137400573Y-96798607D01*
X137400572Y-96798604D01*
X137400572Y-96798603D01*
X137397824Y-96792983D01*
X137389251Y-96732402D01*
X137417924Y-96678351D01*
X137472892Y-96651477D01*
X137486763Y-96650500D01*
X137675500Y-96650500D01*
X137733691Y-96669407D01*
X137769655Y-96718907D01*
X137774500Y-96749500D01*
X137774500Y-97429274D01*
X137777353Y-97459694D01*
X137777355Y-97459703D01*
X137822207Y-97587883D01*
X137902845Y-97697144D01*
X137902847Y-97697146D01*
X137902850Y-97697150D01*
X137902853Y-97697152D01*
X137902855Y-97697154D01*
X138012116Y-97777792D01*
X138012117Y-97777792D01*
X138012118Y-97777793D01*
X138140301Y-97822646D01*
X138170725Y-97825499D01*
X138170727Y-97825500D01*
X138170734Y-97825500D01*
X138954273Y-97825500D01*
X138954273Y-97825499D01*
X138984699Y-97822646D01*
X139112882Y-97777793D01*
X139222150Y-97697150D01*
X139302793Y-97587882D01*
X139347646Y-97459699D01*
X139350499Y-97429273D01*
X139350500Y-97429273D01*
X139350500Y-97250001D01*
X139750000Y-97250001D01*
X139750000Y-97418064D01*
X139760613Y-97506443D01*
X139816080Y-97647095D01*
X139907435Y-97767564D01*
X140027904Y-97858919D01*
X140168556Y-97914386D01*
X140256935Y-97924999D01*
X140256942Y-97925000D01*
X140287499Y-97925000D01*
X140287500Y-97924999D01*
X140287500Y-97250001D01*
X140287499Y-97250000D01*
X139750001Y-97250000D01*
X139750000Y-97250001D01*
X139350500Y-97250001D01*
X139350500Y-96381935D01*
X139750000Y-96381935D01*
X139750000Y-96549999D01*
X139750001Y-96550000D01*
X140287499Y-96550000D01*
X140287500Y-96549999D01*
X140287500Y-95875001D01*
X140287499Y-95875000D01*
X140256935Y-95875000D01*
X140168556Y-95885613D01*
X140027904Y-95941080D01*
X139907435Y-96032435D01*
X139816080Y-96152904D01*
X139760613Y-96293556D01*
X139750000Y-96381935D01*
X139350500Y-96381935D01*
X139350500Y-96370727D01*
X139350499Y-96370725D01*
X139347646Y-96340305D01*
X139347646Y-96340301D01*
X139302793Y-96212118D01*
X139269867Y-96167505D01*
X139222154Y-96102855D01*
X139222152Y-96102853D01*
X139222150Y-96102850D01*
X139222146Y-96102847D01*
X139222144Y-96102845D01*
X139112883Y-96022207D01*
X138984703Y-95977355D01*
X138984694Y-95977353D01*
X138954274Y-95974500D01*
X138954266Y-95974500D01*
X138170734Y-95974500D01*
X138170725Y-95974500D01*
X138140305Y-95977353D01*
X138140296Y-95977355D01*
X138012116Y-96022207D01*
X138001348Y-96030155D01*
X137943301Y-96049497D01*
X137942560Y-96049500D01*
X137509500Y-96049500D01*
X137451309Y-96030593D01*
X137415345Y-95981093D01*
X137410500Y-95950500D01*
X137410499Y-95747870D01*
X137410498Y-95747862D01*
X137394515Y-95667506D01*
X137394515Y-95667505D01*
X137386159Y-95654999D01*
X137369551Y-95596114D01*
X137386159Y-95544999D01*
X137394515Y-95532495D01*
X137410500Y-95452133D01*
X137410499Y-95247868D01*
X137394515Y-95167505D01*
X137386159Y-95154999D01*
X137369551Y-95096114D01*
X137386159Y-95044999D01*
X137394515Y-95032495D01*
X137410500Y-94952133D01*
X137410499Y-94747868D01*
X137394515Y-94667505D01*
X137386159Y-94654999D01*
X137369551Y-94596114D01*
X137386159Y-94544999D01*
X137394515Y-94532495D01*
X137410500Y-94452133D01*
X137410499Y-94247868D01*
X137394515Y-94167505D01*
X137386159Y-94154999D01*
X137369551Y-94096114D01*
X137386159Y-94044999D01*
X137394515Y-94032495D01*
X137410500Y-93952133D01*
X137410499Y-93749499D01*
X137429406Y-93691310D01*
X137478906Y-93655346D01*
X137509499Y-93650500D01*
X137807280Y-93650500D01*
X137865471Y-93669407D01*
X137901435Y-93718907D01*
X137901435Y-93780093D01*
X137886935Y-93808288D01*
X137847208Y-93862114D01*
X137802353Y-93990305D01*
X137799500Y-94020726D01*
X137799500Y-95379265D01*
X137802353Y-95409694D01*
X137802353Y-95409696D01*
X137802354Y-95409698D01*
X137817204Y-95452137D01*
X137847208Y-95537885D01*
X137927845Y-95647144D01*
X137927847Y-95647146D01*
X137927850Y-95647150D01*
X137927853Y-95647152D01*
X137927855Y-95647154D01*
X138037114Y-95727791D01*
X138037116Y-95727791D01*
X138037118Y-95727793D01*
X138165302Y-95772646D01*
X138195735Y-95775500D01*
X139229264Y-95775499D01*
X139229265Y-95775499D01*
X139235350Y-95774928D01*
X139259698Y-95772646D01*
X139387882Y-95727793D01*
X139497150Y-95647150D01*
X139572539Y-95545001D01*
X139577791Y-95537885D01*
X139577791Y-95537884D01*
X139577793Y-95537882D01*
X139622646Y-95409698D01*
X139625500Y-95379265D01*
X139625499Y-94020736D01*
X139622646Y-93990302D01*
X139577793Y-93862118D01*
X139577791Y-93862116D01*
X139577791Y-93862114D01*
X139497154Y-93752855D01*
X139497152Y-93752853D01*
X139497150Y-93752850D01*
X139497146Y-93752847D01*
X139497144Y-93752845D01*
X139387885Y-93672208D01*
X139339695Y-93655346D01*
X139259698Y-93627354D01*
X139259696Y-93627353D01*
X139259694Y-93627353D01*
X139229273Y-93624500D01*
X139229265Y-93624500D01*
X138576979Y-93624500D01*
X138518788Y-93605593D01*
X138482824Y-93556093D01*
X138482824Y-93494907D01*
X138506975Y-93455496D01*
X138507975Y-93454496D01*
X138562492Y-93426719D01*
X138577979Y-93425500D01*
X139429273Y-93425500D01*
X139429273Y-93425499D01*
X139459699Y-93422646D01*
X139587882Y-93377793D01*
X139697150Y-93297150D01*
X139777793Y-93187882D01*
X139822646Y-93059699D01*
X139825499Y-93029273D01*
X139825500Y-93029273D01*
X139825500Y-92245727D01*
X139825499Y-92245725D01*
X139822646Y-92215305D01*
X139822646Y-92215301D01*
X139777793Y-92087118D01*
X139767036Y-92072543D01*
X139697154Y-91977855D01*
X139697152Y-91977853D01*
X139697150Y-91977850D01*
X139697146Y-91977847D01*
X139697144Y-91977845D01*
X139587883Y-91897207D01*
X139459703Y-91852355D01*
X139459694Y-91852353D01*
X139429274Y-91849500D01*
X139429266Y-91849500D01*
X138370734Y-91849500D01*
X138370725Y-91849500D01*
X138340305Y-91852353D01*
X138340296Y-91852355D01*
X138212116Y-91897207D01*
X138102855Y-91977845D01*
X138102845Y-91977855D01*
X138022207Y-92087116D01*
X137977355Y-92215296D01*
X137977353Y-92215305D01*
X137974500Y-92245725D01*
X137974500Y-92950500D01*
X137955593Y-93008691D01*
X137906093Y-93044655D01*
X137875500Y-93049500D01*
X137509500Y-93049500D01*
X137451309Y-93030593D01*
X137415345Y-92981093D01*
X137410500Y-92950500D01*
X137410499Y-92747870D01*
X137410498Y-92747862D01*
X137394515Y-92667505D01*
X137394514Y-92667503D01*
X137354515Y-92607641D01*
X137337906Y-92548753D01*
X137347890Y-92509158D01*
X137384812Y-92433632D01*
X137400573Y-92401393D01*
X137410500Y-92333260D01*
X137410500Y-91966740D01*
X137400573Y-91898607D01*
X137396873Y-91891039D01*
X137388303Y-91830461D01*
X137406161Y-91788773D01*
X137462344Y-91712649D01*
X137462347Y-91712643D01*
X137484268Y-91650000D01*
X137103740Y-91650000D01*
X137096583Y-91649741D01*
X137093261Y-91649500D01*
X137093260Y-91649500D01*
X136584000Y-91649500D01*
X136525809Y-91630593D01*
X136489845Y-91581093D01*
X136485000Y-91550500D01*
X136485000Y-91149000D01*
X136503907Y-91090809D01*
X136553407Y-91054845D01*
X136584000Y-91050000D01*
X137484267Y-91050000D01*
X137462347Y-90987356D01*
X137462346Y-90987354D01*
X137420224Y-90930282D01*
X137420223Y-90930280D01*
X137407101Y-90912501D01*
X137875000Y-90912501D01*
X137875000Y-90943064D01*
X137885613Y-91031443D01*
X137941080Y-91172095D01*
X138032435Y-91292564D01*
X138152904Y-91383919D01*
X138293556Y-91439386D01*
X138381935Y-91449999D01*
X138381942Y-91450000D01*
X138549999Y-91450000D01*
X138550000Y-91449999D01*
X138550000Y-90912501D01*
X139250000Y-90912501D01*
X139250000Y-91449999D01*
X139250001Y-91450000D01*
X139418058Y-91450000D01*
X139418064Y-91449999D01*
X139506443Y-91439386D01*
X139647095Y-91383919D01*
X139767564Y-91292564D01*
X139858919Y-91172095D01*
X139914386Y-91031443D01*
X139924999Y-90943064D01*
X139925000Y-90943058D01*
X139925000Y-90912501D01*
X139924999Y-90912500D01*
X139250001Y-90912500D01*
X139250000Y-90912501D01*
X138550000Y-90912501D01*
X138549999Y-90912500D01*
X137875001Y-90912500D01*
X137875000Y-90912501D01*
X137407101Y-90912501D01*
X137381795Y-90878212D01*
X137381790Y-90878207D01*
X137272647Y-90797654D01*
X137144601Y-90752850D01*
X137114211Y-90750000D01*
X136939397Y-90750000D01*
X136881206Y-90731093D01*
X136845242Y-90681593D01*
X136845242Y-90636440D01*
X136840939Y-90630000D01*
X134299061Y-90630000D01*
X134311048Y-90658941D01*
X134398599Y-90789969D01*
X134398602Y-90789973D01*
X134510026Y-90901397D01*
X134510030Y-90901400D01*
X134641050Y-90988947D01*
X134641062Y-90988953D01*
X134744874Y-91031953D01*
X134791400Y-91071689D01*
X134805684Y-91131184D01*
X134782269Y-91187712D01*
X134756490Y-91209153D01*
X134686637Y-91249483D01*
X134579481Y-91356639D01*
X134503720Y-91487860D01*
X134503719Y-91487865D01*
X134464500Y-91634234D01*
X134464500Y-91785766D01*
X134482949Y-91854619D01*
X134503720Y-91932139D01*
X134579481Y-92063360D01*
X134579483Y-92063362D01*
X134579485Y-92063365D01*
X134686635Y-92170515D01*
X134686637Y-92170516D01*
X134686639Y-92170518D01*
X134817861Y-92246279D01*
X134817859Y-92246279D01*
X134817863Y-92246280D01*
X134817865Y-92246281D01*
X134964234Y-92285500D01*
X134964236Y-92285500D01*
X135115764Y-92285500D01*
X135115766Y-92285500D01*
X135262135Y-92246281D01*
X135262137Y-92246279D01*
X135262139Y-92246279D01*
X135393360Y-92170518D01*
X135393360Y-92170517D01*
X135393365Y-92170515D01*
X135393368Y-92170511D01*
X135398511Y-92166566D01*
X135400018Y-92168531D01*
X135445013Y-92145606D01*
X135505445Y-92155177D01*
X135548710Y-92198442D01*
X135559500Y-92243387D01*
X135559500Y-92333260D01*
X135560406Y-92339477D01*
X135569427Y-92401395D01*
X135622110Y-92509159D01*
X135630681Y-92569741D01*
X135615485Y-92607640D01*
X135575486Y-92667502D01*
X135575486Y-92667503D01*
X135575485Y-92667505D01*
X135559501Y-92747862D01*
X135559500Y-92747867D01*
X135559500Y-92952129D01*
X135559501Y-92952137D01*
X135575484Y-93032494D01*
X135575486Y-93032498D01*
X135583840Y-93045001D01*
X135600447Y-93103889D01*
X135583840Y-93154999D01*
X135575485Y-93167503D01*
X135575484Y-93167504D01*
X135559500Y-93247864D01*
X135559500Y-93452129D01*
X135559501Y-93452137D01*
X135575484Y-93532494D01*
X135575486Y-93532498D01*
X135583840Y-93545001D01*
X135600447Y-93603889D01*
X135583840Y-93654999D01*
X135575485Y-93667503D01*
X135575484Y-93667504D01*
X135559500Y-93747864D01*
X135559500Y-93952129D01*
X135559501Y-93952137D01*
X135575484Y-94032494D01*
X135575486Y-94032498D01*
X135583840Y-94045001D01*
X135600447Y-94103889D01*
X135583840Y-94154999D01*
X135575485Y-94167503D01*
X135575484Y-94167504D01*
X135559500Y-94247864D01*
X135559500Y-94452129D01*
X135559501Y-94452137D01*
X135575484Y-94532494D01*
X135575486Y-94532498D01*
X135583840Y-94545001D01*
X135600447Y-94603889D01*
X135583840Y-94654999D01*
X135575485Y-94667503D01*
X135575484Y-94667504D01*
X135559500Y-94747864D01*
X135559500Y-94952129D01*
X135559501Y-94952137D01*
X135575484Y-95032494D01*
X135575486Y-95032498D01*
X135583840Y-95045001D01*
X135600447Y-95103889D01*
X135583840Y-95154999D01*
X135575485Y-95167503D01*
X135575484Y-95167504D01*
X135559500Y-95247864D01*
X135559500Y-95452129D01*
X135559501Y-95452137D01*
X135575484Y-95532494D01*
X135575486Y-95532498D01*
X135583840Y-95545001D01*
X135600447Y-95603889D01*
X135583840Y-95654999D01*
X135575485Y-95667503D01*
X135575484Y-95667504D01*
X135559500Y-95747864D01*
X135559500Y-95952129D01*
X135559501Y-95952137D01*
X135575484Y-96032494D01*
X135575486Y-96032498D01*
X135583840Y-96045001D01*
X135600447Y-96103889D01*
X135583840Y-96154999D01*
X135575485Y-96167503D01*
X135575484Y-96167504D01*
X135559500Y-96247864D01*
X135559500Y-96452129D01*
X135559501Y-96452137D01*
X135575484Y-96532494D01*
X135575485Y-96532496D01*
X135615484Y-96592358D01*
X135632093Y-96651246D01*
X135622110Y-96690840D01*
X135569427Y-96798604D01*
X135569427Y-96798607D01*
X135561184Y-96855186D01*
X135559500Y-96866743D01*
X135559500Y-96956613D01*
X135540593Y-97014804D01*
X135491093Y-97050768D01*
X135429907Y-97050768D01*
X135399505Y-97032138D01*
X135398511Y-97033434D01*
X135393360Y-97029481D01*
X135262138Y-96953720D01*
X135262140Y-96953720D01*
X135205347Y-96938503D01*
X135115766Y-96914500D01*
X134964234Y-96914500D01*
X134874652Y-96938503D01*
X134817860Y-96953720D01*
X134686639Y-97029481D01*
X134579481Y-97136639D01*
X134503720Y-97267860D01*
X134494735Y-97301393D01*
X134464500Y-97414234D01*
X134464500Y-97565766D01*
X134490108Y-97661337D01*
X134503720Y-97712139D01*
X134579481Y-97843360D01*
X134579483Y-97843362D01*
X134579485Y-97843365D01*
X134686635Y-97950515D01*
X134686637Y-97950516D01*
X134686639Y-97950518D01*
X134756489Y-97990846D01*
X134797430Y-98036315D01*
X134803826Y-98097165D01*
X134773233Y-98150153D01*
X134744875Y-98168046D01*
X134641059Y-98211048D01*
X134641050Y-98211052D01*
X134510030Y-98298599D01*
X134510026Y-98298602D01*
X134398602Y-98410026D01*
X134398599Y-98410030D01*
X134311048Y-98541058D01*
X134299060Y-98569999D01*
X132410939Y-98569999D01*
X132398951Y-98541058D01*
X132311400Y-98410030D01*
X132311397Y-98410026D01*
X132199973Y-98298602D01*
X132199969Y-98298599D01*
X132068949Y-98211052D01*
X132068940Y-98211048D01*
X131923349Y-98150742D01*
X131768795Y-98120000D01*
X131740001Y-98120000D01*
X131740000Y-98120001D01*
X131040000Y-98120001D01*
X131039999Y-98120000D01*
X131011204Y-98120000D01*
X130856650Y-98150742D01*
X130711059Y-98211048D01*
X130711050Y-98211052D01*
X130580030Y-98298599D01*
X130580026Y-98298602D01*
X130468602Y-98410026D01*
X130468599Y-98410030D01*
X130381048Y-98541058D01*
X130369060Y-98569999D01*
X128550500Y-98569999D01*
X128550500Y-90630000D01*
X130369061Y-90630000D01*
X130381048Y-90658941D01*
X130468599Y-90789969D01*
X130468602Y-90789973D01*
X130580026Y-90901397D01*
X130580030Y-90901400D01*
X130711050Y-90988947D01*
X130711059Y-90988951D01*
X130856650Y-91049257D01*
X131011204Y-91079999D01*
X131011208Y-91080000D01*
X131039999Y-91080000D01*
X131040000Y-91079999D01*
X131040000Y-90630001D01*
X131740000Y-90630001D01*
X131740000Y-91079999D01*
X131740001Y-91080000D01*
X131768792Y-91080000D01*
X131768795Y-91079999D01*
X131923349Y-91049257D01*
X132068940Y-90988951D01*
X132068949Y-90988947D01*
X132199969Y-90901400D01*
X132199973Y-90901397D01*
X132311397Y-90789973D01*
X132311400Y-90789969D01*
X132398951Y-90658941D01*
X132410939Y-90630000D01*
X131740001Y-90630000D01*
X131740000Y-90630001D01*
X131040000Y-90630001D01*
X131039999Y-90630000D01*
X130369061Y-90630000D01*
X128550500Y-90630000D01*
X128550500Y-90240504D01*
X130790000Y-90240504D01*
X130790000Y-90319496D01*
X130810444Y-90395796D01*
X130849940Y-90464205D01*
X130905795Y-90520060D01*
X130974204Y-90559556D01*
X131050504Y-90580000D01*
X131729496Y-90580000D01*
X131805796Y-90559556D01*
X131874205Y-90520060D01*
X131930060Y-90464205D01*
X131969556Y-90395796D01*
X131990000Y-90319496D01*
X131990000Y-90240504D01*
X134720000Y-90240504D01*
X134720000Y-90319496D01*
X134740444Y-90395796D01*
X134779940Y-90464205D01*
X134835795Y-90520060D01*
X134904204Y-90559556D01*
X134980504Y-90580000D01*
X136159496Y-90580000D01*
X136235796Y-90559556D01*
X136304205Y-90520060D01*
X136360060Y-90464205D01*
X136399556Y-90395796D01*
X136420000Y-90319496D01*
X136420000Y-90240504D01*
X136399556Y-90164204D01*
X136360060Y-90095795D01*
X136304205Y-90039940D01*
X136235796Y-90000444D01*
X136159496Y-89980000D01*
X134980504Y-89980000D01*
X134904204Y-90000444D01*
X134835795Y-90039940D01*
X134779940Y-90095795D01*
X134740444Y-90164204D01*
X134720000Y-90240504D01*
X131990000Y-90240504D01*
X131969556Y-90164204D01*
X131930060Y-90095795D01*
X131874205Y-90039940D01*
X131805796Y-90000444D01*
X131729496Y-89980000D01*
X131050504Y-89980000D01*
X130974204Y-90000444D01*
X130905795Y-90039940D01*
X130849940Y-90095795D01*
X130810444Y-90164204D01*
X130790000Y-90240504D01*
X128550500Y-90240504D01*
X128550500Y-89649500D01*
X128569407Y-89591309D01*
X128618907Y-89555345D01*
X128649500Y-89550500D01*
X130449121Y-89550500D01*
X130507312Y-89569407D01*
G37*
%TD.AperFunction*%
%TD*%
M02*
