%TF.GenerationSoftware,KiCad,Pcbnew,10.0.5*%
%TF.CreationDate,2026-08-09T08:35:44+02:00*%
%TF.ProjectId,USB-C2easypads_kicad,5553422d-4332-4656-9173-79706164735f,rev?*%
%TF.SameCoordinates,Original*%
%TF.FileFunction,Copper,L2,Bot*%
%TF.FilePolarity,Positive*%
%FSLAX46Y46*%
G04 Gerber Fmt 4.6, Leading zero omitted, Abs format (unit mm)*
G04 Created by KiCad (PCBNEW 10.0.5) date 2026-08-09 08:35:44*
%MOMM*%
%LPD*%
G01*
G04 APERTURE LIST*
%TA.AperFunction,ComponentPad*%
%ADD10O,2.100000X1.000000*%
%TD*%
%TA.AperFunction,ComponentPad*%
%ADD11O,1.600000X1.000000*%
%TD*%
%TA.AperFunction,ViaPad*%
%ADD12C,0.400000*%
%TD*%
%TA.AperFunction,ViaPad*%
%ADD13C,0.600000*%
%TD*%
%TA.AperFunction,Conductor*%
%ADD14C,0.200000*%
%TD*%
%TA.AperFunction,Conductor*%
%ADD15C,0.400000*%
%TD*%
%TA.AperFunction,Conductor*%
%ADD16C,0.600000*%
%TD*%
G04 APERTURE END LIST*
D10*
%TO.P,J1,SH,SHIELD_SH*%
%TO.N,GND*%
X135570000Y-90280000D03*
D11*
X131390000Y-90280000D03*
D10*
X135570000Y-98920000D03*
D11*
X131390000Y-98920000D03*
%TD*%
D12*
%TO.N,Net-(U1-VDD)*%
X140750000Y-92637500D03*
X144700000Y-90650000D03*
%TO.N,GND*%
X144700000Y-94562500D03*
X146162500Y-98700000D03*
D13*
X149100000Y-93100000D03*
X140637500Y-96900000D03*
D12*
%TO.N,/CC1*%
X138900000Y-92637500D03*
X142650000Y-90362500D03*
%TO.N,/CC2*%
X141700000Y-90362500D03*
X138562500Y-96900000D03*
%TO.N,Net-(U1-CFG)*%
X146700000Y-90762500D03*
X140750000Y-90362500D03*
D13*
%TO.N,/USB_VBUS*%
X138712500Y-94800000D03*
X136485000Y-97050000D03*
X136485000Y-92150000D03*
%TD*%
%TO.N,Net-(U1-VDD)*%
D14*
X142712500Y-92637500D02*
X140750000Y-92637500D01*
X144700000Y-90650000D02*
X142712500Y-92637500D01*
%TO.N,GND*%
D15*
X144162500Y-98700000D02*
X146162500Y-98700000D01*
X142362500Y-96900000D02*
X144162500Y-98700000D01*
X144700000Y-94562500D02*
X147637500Y-94562500D01*
X147637500Y-94562500D02*
X149100000Y-93100000D01*
X140637500Y-96900000D02*
X142362500Y-96900000D01*
X142362500Y-96900000D02*
X144700000Y-94562500D01*
%TO.N,/CC1*%
D14*
X141312500Y-92137500D02*
X142650000Y-90800000D01*
X138900000Y-92637500D02*
X139400000Y-92137500D01*
X142650000Y-90800000D02*
X142650000Y-90362500D01*
X139400000Y-92137500D02*
X141312500Y-92137500D01*
X138900000Y-92637500D02*
X138900000Y-92455393D01*
%TO.N,/CC2*%
X138400000Y-92389708D02*
X138400000Y-93638972D01*
X139052208Y-91737500D02*
X138400000Y-92389708D01*
X139312500Y-94551472D02*
X139312500Y-95345393D01*
X141700000Y-90362500D02*
X140325000Y-91737500D01*
X139312500Y-95345393D02*
X138562500Y-96095393D01*
X140325000Y-91737500D02*
X139052208Y-91737500D01*
X138562500Y-96095393D02*
X138562500Y-96900000D01*
X138400000Y-93638972D02*
X139312500Y-94551472D01*
%TO.N,Net-(U1-CFG)*%
X146700000Y-90762500D02*
X145587500Y-89650000D01*
X145587500Y-89650000D02*
X141462500Y-89650000D01*
X141462500Y-89650000D02*
X140750000Y-90362500D01*
%TO.N,/USB_VBUS*%
D16*
X136500000Y-94650000D02*
X136650000Y-94800000D01*
X136485000Y-97050000D02*
X136485000Y-94950000D01*
X136635000Y-94800000D02*
X136485000Y-94950000D01*
X136485000Y-94650000D02*
X136485000Y-92150000D01*
X136485000Y-94950000D02*
X136485000Y-94650000D01*
X137150000Y-94800000D02*
X136635000Y-94800000D01*
X136650000Y-94800000D02*
X137150000Y-94800000D01*
X137150000Y-94800000D02*
X138712500Y-94800000D01*
%TD*%
%TA.AperFunction,Conductor*%
%TO.N,GND*%
G36*
X130507312Y-89569407D02*
G01*
X130543276Y-89618907D01*
X130543276Y-89680093D01*
X130519125Y-89719504D01*
X130468602Y-89770026D01*
X130468599Y-89770030D01*
X130381048Y-89901058D01*
X130369060Y-89929999D01*
X130369061Y-89930000D01*
X132410939Y-89930000D01*
X132410939Y-89929999D01*
X132398951Y-89901058D01*
X132311400Y-89770030D01*
X132311397Y-89770026D01*
X132260875Y-89719504D01*
X132233098Y-89664987D01*
X132242669Y-89604555D01*
X132285934Y-89561290D01*
X132330879Y-89550500D01*
X134379121Y-89550500D01*
X134437312Y-89569407D01*
X134473276Y-89618907D01*
X134473276Y-89680093D01*
X134449125Y-89719504D01*
X134398602Y-89770026D01*
X134398599Y-89770030D01*
X134311048Y-89901058D01*
X134299060Y-89929999D01*
X134299061Y-89930000D01*
X136840939Y-89930000D01*
X136840939Y-89929999D01*
X136828951Y-89901058D01*
X136741400Y-89770030D01*
X136741397Y-89770026D01*
X136690875Y-89719504D01*
X136663098Y-89664987D01*
X136672669Y-89604555D01*
X136715934Y-89561290D01*
X136760879Y-89550500D01*
X140898021Y-89550500D01*
X140956212Y-89569407D01*
X140992176Y-89618907D01*
X140992176Y-89680093D01*
X140968024Y-89719504D01*
X140753574Y-89933953D01*
X140703334Y-89959550D01*
X140703541Y-89960321D01*
X140699918Y-89961291D01*
X140699058Y-89961730D01*
X140697368Y-89961975D01*
X140697275Y-89962000D01*
X140697273Y-89962000D01*
X140595413Y-89989293D01*
X140595412Y-89989293D01*
X140595410Y-89989294D01*
X140595409Y-89989294D01*
X140504089Y-90042018D01*
X140429518Y-90116589D01*
X140376794Y-90207909D01*
X140376794Y-90207910D01*
X140376793Y-90207912D01*
X140376793Y-90207913D01*
X140349500Y-90309773D01*
X140349500Y-90415227D01*
X140370985Y-90495410D01*
X140376794Y-90517089D01*
X140376794Y-90517090D01*
X140429231Y-90607913D01*
X140429520Y-90608413D01*
X140504087Y-90682980D01*
X140595413Y-90735707D01*
X140671439Y-90756078D01*
X140722752Y-90789401D01*
X140744679Y-90846522D01*
X140728844Y-90905623D01*
X140715819Y-90921707D01*
X140229525Y-91408003D01*
X140175008Y-91435781D01*
X140159521Y-91437000D01*
X139012643Y-91437000D01*
X138936219Y-91457478D01*
X138936218Y-91457478D01*
X138883591Y-91487864D01*
X138883587Y-91487866D01*
X138867700Y-91497037D01*
X138215489Y-92149248D01*
X138215488Y-92149247D01*
X138159539Y-92205197D01*
X138119980Y-92273715D01*
X138119978Y-92273719D01*
X138099500Y-92350143D01*
X138099500Y-93678536D01*
X138119978Y-93754960D01*
X138119980Y-93754964D01*
X138159539Y-93823482D01*
X138466553Y-94130497D01*
X138494330Y-94185013D01*
X138484759Y-94245445D01*
X138441494Y-94288710D01*
X138396549Y-94299500D01*
X137084500Y-94299500D01*
X137026309Y-94280593D01*
X136990345Y-94231093D01*
X136985500Y-94200500D01*
X136985500Y-92084109D01*
X136979942Y-92063365D01*
X136951392Y-91956814D01*
X136951390Y-91956811D01*
X136951390Y-91956809D01*
X136885503Y-91842690D01*
X136885501Y-91842688D01*
X136885500Y-91842686D01*
X136792314Y-91749500D01*
X136792311Y-91749498D01*
X136792309Y-91749496D01*
X136678189Y-91683609D01*
X136678191Y-91683609D01*
X136625702Y-91669545D01*
X136550892Y-91649500D01*
X136419108Y-91649500D01*
X136344298Y-91669545D01*
X136291809Y-91683609D01*
X136177690Y-91749496D01*
X136084496Y-91842690D01*
X136018609Y-91956809D01*
X135999539Y-92027978D01*
X135984500Y-92084108D01*
X135984500Y-94584108D01*
X135984500Y-94884108D01*
X135984500Y-97115892D01*
X135992544Y-97145913D01*
X136018609Y-97243190D01*
X136084496Y-97357309D01*
X136084498Y-97357311D01*
X136084500Y-97357314D01*
X136177686Y-97450500D01*
X136177688Y-97450501D01*
X136177690Y-97450503D01*
X136291810Y-97516390D01*
X136291808Y-97516390D01*
X136291812Y-97516391D01*
X136291814Y-97516392D01*
X136419108Y-97550500D01*
X136419110Y-97550500D01*
X136550890Y-97550500D01*
X136550892Y-97550500D01*
X136678186Y-97516392D01*
X136678188Y-97516390D01*
X136678190Y-97516390D01*
X136792309Y-97450503D01*
X136792309Y-97450502D01*
X136792314Y-97450500D01*
X136885500Y-97357314D01*
X136918302Y-97300500D01*
X136951390Y-97243190D01*
X136951390Y-97243188D01*
X136951392Y-97243186D01*
X136985500Y-97115892D01*
X136985500Y-95399500D01*
X137004407Y-95341309D01*
X137053907Y-95305345D01*
X137084500Y-95300500D01*
X138693414Y-95300500D01*
X138751605Y-95319407D01*
X138787569Y-95368907D01*
X138787569Y-95430093D01*
X138763418Y-95469504D01*
X138377989Y-95854933D01*
X138377988Y-95854932D01*
X138322039Y-95910882D01*
X138282480Y-95979400D01*
X138282478Y-95979404D01*
X138262000Y-96055828D01*
X138262000Y-96594442D01*
X138244575Y-96648070D01*
X138245264Y-96648468D01*
X138243393Y-96651707D01*
X138243093Y-96652633D01*
X138242063Y-96654011D01*
X138189294Y-96745409D01*
X138189294Y-96745410D01*
X138189293Y-96745412D01*
X138189293Y-96745413D01*
X138162000Y-96847273D01*
X138162000Y-96952727D01*
X138182566Y-97029481D01*
X138189294Y-97054589D01*
X138189294Y-97054590D01*
X138242018Y-97145910D01*
X138242020Y-97145913D01*
X138316587Y-97220480D01*
X138407913Y-97273207D01*
X138509773Y-97300500D01*
X138509775Y-97300500D01*
X138615225Y-97300500D01*
X138615227Y-97300500D01*
X138717087Y-97273207D01*
X138808413Y-97220480D01*
X138882980Y-97145913D01*
X138935707Y-97054587D01*
X138963000Y-96952727D01*
X138963000Y-96847273D01*
X138935707Y-96745413D01*
X138882980Y-96654087D01*
X138879736Y-96648468D01*
X138880988Y-96647744D01*
X138863034Y-96597021D01*
X138863000Y-96594442D01*
X138863000Y-96260871D01*
X138881907Y-96202680D01*
X138891990Y-96190873D01*
X139552960Y-95529904D01*
X139592521Y-95461382D01*
X139613000Y-95384955D01*
X139613000Y-94511910D01*
X139592521Y-94435483D01*
X139552960Y-94366961D01*
X139497011Y-94311011D01*
X139497011Y-94311012D01*
X138729496Y-93543497D01*
X138701719Y-93488980D01*
X138700500Y-93473493D01*
X138700500Y-93127691D01*
X138719407Y-93069500D01*
X138768907Y-93033536D01*
X138825123Y-93032065D01*
X138847273Y-93038000D01*
X138847274Y-93038000D01*
X138952725Y-93038000D01*
X138952727Y-93038000D01*
X139054587Y-93010707D01*
X139145913Y-92957980D01*
X139220480Y-92883413D01*
X139273207Y-92792087D01*
X139300500Y-92690227D01*
X139300500Y-92690224D01*
X139302179Y-92683959D01*
X139303580Y-92684334D01*
X139326734Y-92635785D01*
X139328547Y-92633924D01*
X139495476Y-92466996D01*
X139549992Y-92439219D01*
X139565479Y-92438000D01*
X140259809Y-92438000D01*
X140318000Y-92456907D01*
X140353964Y-92506407D01*
X140355435Y-92562624D01*
X140349500Y-92584771D01*
X140349500Y-92584773D01*
X140349500Y-92690227D01*
X140376793Y-92792087D01*
X140376794Y-92792089D01*
X140376794Y-92792090D01*
X140429518Y-92883410D01*
X140429520Y-92883413D01*
X140504087Y-92957980D01*
X140595413Y-93010707D01*
X140697273Y-93038000D01*
X140697275Y-93038000D01*
X140802725Y-93038000D01*
X140802727Y-93038000D01*
X140904587Y-93010707D01*
X140995913Y-92957980D01*
X140995912Y-92957980D01*
X141001532Y-92954736D01*
X141002256Y-92955990D01*
X141052968Y-92938034D01*
X141055557Y-92938000D01*
X142752063Y-92938000D01*
X142752063Y-92937999D01*
X142828489Y-92917521D01*
X142897011Y-92877960D01*
X142952960Y-92822011D01*
X144696426Y-91078544D01*
X144746664Y-91052947D01*
X144746459Y-91052179D01*
X144750075Y-91051209D01*
X144750941Y-91050769D01*
X144752642Y-91050522D01*
X144752724Y-91050500D01*
X144752727Y-91050500D01*
X144854587Y-91023207D01*
X144945913Y-90970480D01*
X145020480Y-90895913D01*
X145073207Y-90804587D01*
X145100500Y-90702727D01*
X145100500Y-90597273D01*
X145073207Y-90495413D01*
X145072433Y-90494073D01*
X145026912Y-90415227D01*
X145020480Y-90404087D01*
X144945913Y-90329520D01*
X144911710Y-90309773D01*
X144854589Y-90276794D01*
X144854588Y-90276793D01*
X144854587Y-90276793D01*
X144752727Y-90249500D01*
X144647273Y-90249500D01*
X144545413Y-90276793D01*
X144545412Y-90276793D01*
X144545410Y-90276794D01*
X144545409Y-90276794D01*
X144454089Y-90329518D01*
X144379518Y-90404089D01*
X144326794Y-90495409D01*
X144326794Y-90495410D01*
X144326793Y-90495412D01*
X144326793Y-90495413D01*
X144304129Y-90580000D01*
X144297821Y-90603541D01*
X144296422Y-90603166D01*
X144273252Y-90651728D01*
X144271453Y-90653575D01*
X142617025Y-92308004D01*
X142562508Y-92335781D01*
X142547021Y-92337000D01*
X141776979Y-92337000D01*
X141718788Y-92318093D01*
X141682824Y-92268593D01*
X141682824Y-92207407D01*
X141706975Y-92167996D01*
X141942836Y-91932135D01*
X142890460Y-90984511D01*
X142929386Y-90917090D01*
X142930020Y-90915992D01*
X142930020Y-90915990D01*
X142930022Y-90915988D01*
X142950500Y-90839562D01*
X142950500Y-90760438D01*
X142950500Y-90668057D01*
X142967924Y-90614429D01*
X142967236Y-90614032D01*
X142969105Y-90610793D01*
X142969407Y-90609866D01*
X142970438Y-90608485D01*
X142970482Y-90608410D01*
X143023207Y-90517087D01*
X143050500Y-90415227D01*
X143050500Y-90309773D01*
X143023207Y-90207913D01*
X142970480Y-90116587D01*
X142970479Y-90116586D01*
X142970478Y-90116584D01*
X142966529Y-90111437D01*
X142968510Y-90109916D01*
X142945619Y-90064987D01*
X142955190Y-90004555D01*
X142998455Y-89961290D01*
X143043400Y-89950500D01*
X145422021Y-89950500D01*
X145480212Y-89969407D01*
X145492025Y-89979496D01*
X146271453Y-90758924D01*
X146297051Y-90809165D01*
X146297821Y-90808959D01*
X146298791Y-90812579D01*
X146299230Y-90813441D01*
X146299476Y-90815136D01*
X146299500Y-90815225D01*
X146299500Y-90815227D01*
X146323721Y-90905623D01*
X146326794Y-90917089D01*
X146326794Y-90917090D01*
X146379518Y-91008410D01*
X146379520Y-91008413D01*
X146454087Y-91082980D01*
X146545413Y-91135707D01*
X146647273Y-91163000D01*
X146647275Y-91163000D01*
X146752725Y-91163000D01*
X146752727Y-91163000D01*
X146854587Y-91135707D01*
X146945913Y-91082980D01*
X147020480Y-91008413D01*
X147073207Y-90917087D01*
X147100500Y-90815227D01*
X147100500Y-90709773D01*
X147073207Y-90607913D01*
X147070466Y-90603166D01*
X147020481Y-90516589D01*
X147020480Y-90516587D01*
X146945913Y-90442020D01*
X146936641Y-90436667D01*
X146854589Y-90389294D01*
X146854588Y-90389293D01*
X146854587Y-90389293D01*
X146752727Y-90362000D01*
X146752725Y-90362000D01*
X146746459Y-90360321D01*
X146746833Y-90358922D01*
X146698273Y-90335754D01*
X146696424Y-90333953D01*
X146081975Y-89719504D01*
X146054198Y-89664987D01*
X146063769Y-89604555D01*
X146107034Y-89561290D01*
X146151979Y-89550500D01*
X146686352Y-89550500D01*
X146738461Y-89565324D01*
X148675881Y-90764679D01*
X150601638Y-91956814D01*
X150652609Y-91988367D01*
X150692135Y-92035072D01*
X150699500Y-92072543D01*
X150699500Y-97327683D01*
X150680593Y-97385874D01*
X150652682Y-97411814D01*
X146988346Y-99684631D01*
X146936164Y-99699500D01*
X136710879Y-99699500D01*
X136652688Y-99680593D01*
X136616724Y-99631093D01*
X136616724Y-99569907D01*
X136640875Y-99530496D01*
X136741397Y-99429973D01*
X136741400Y-99429969D01*
X136828951Y-99298941D01*
X136840939Y-99270000D01*
X134299061Y-99270000D01*
X134311048Y-99298941D01*
X134398599Y-99429969D01*
X134398602Y-99429973D01*
X134499125Y-99530496D01*
X134526902Y-99585013D01*
X134517331Y-99645445D01*
X134474066Y-99688710D01*
X134429121Y-99699500D01*
X132280879Y-99699500D01*
X132222688Y-99680593D01*
X132186724Y-99631093D01*
X132186724Y-99569907D01*
X132210875Y-99530496D01*
X132311397Y-99429973D01*
X132311400Y-99429969D01*
X132398951Y-99298941D01*
X132410939Y-99270000D01*
X130369061Y-99270000D01*
X130381048Y-99298941D01*
X130468599Y-99429969D01*
X130468602Y-99429973D01*
X130569125Y-99530496D01*
X130596902Y-99585013D01*
X130587331Y-99645445D01*
X130544066Y-99688710D01*
X130499121Y-99699500D01*
X128649500Y-99699500D01*
X128591309Y-99680593D01*
X128555345Y-99631093D01*
X128550500Y-99600500D01*
X128550500Y-98880504D01*
X130790000Y-98880504D01*
X130790000Y-98959496D01*
X130810444Y-99035796D01*
X130849940Y-99104205D01*
X130905795Y-99160060D01*
X130974204Y-99199556D01*
X131050504Y-99220000D01*
X131729496Y-99220000D01*
X131805796Y-99199556D01*
X131874205Y-99160060D01*
X131930060Y-99104205D01*
X131969556Y-99035796D01*
X131990000Y-98959496D01*
X131990000Y-98880504D01*
X134720000Y-98880504D01*
X134720000Y-98959496D01*
X134740444Y-99035796D01*
X134779940Y-99104205D01*
X134835795Y-99160060D01*
X134904204Y-99199556D01*
X134980504Y-99220000D01*
X136159496Y-99220000D01*
X136235796Y-99199556D01*
X136304205Y-99160060D01*
X136360060Y-99104205D01*
X136399556Y-99035796D01*
X136420000Y-98959496D01*
X136420000Y-98880504D01*
X136399556Y-98804204D01*
X136360060Y-98735795D01*
X136304205Y-98679940D01*
X136235796Y-98640444D01*
X136159496Y-98620000D01*
X134980504Y-98620000D01*
X134904204Y-98640444D01*
X134835795Y-98679940D01*
X134779940Y-98735795D01*
X134740444Y-98804204D01*
X134720000Y-98880504D01*
X131990000Y-98880504D01*
X131969556Y-98804204D01*
X131930060Y-98735795D01*
X131874205Y-98679940D01*
X131805796Y-98640444D01*
X131729496Y-98620000D01*
X131050504Y-98620000D01*
X130974204Y-98640444D01*
X130905795Y-98679940D01*
X130849940Y-98735795D01*
X130810444Y-98804204D01*
X130790000Y-98880504D01*
X128550500Y-98880504D01*
X128550500Y-98569999D01*
X130369060Y-98569999D01*
X130369061Y-98570000D01*
X131039999Y-98570000D01*
X131040000Y-98569999D01*
X131040000Y-98120001D01*
X131740000Y-98120001D01*
X131740000Y-98569999D01*
X131740001Y-98570000D01*
X132410939Y-98570000D01*
X132410939Y-98569999D01*
X134299060Y-98569999D01*
X134299061Y-98570000D01*
X135219999Y-98570000D01*
X135220000Y-98569999D01*
X135220000Y-98120001D01*
X135920000Y-98120001D01*
X135920000Y-98569999D01*
X135920001Y-98570000D01*
X136840939Y-98570000D01*
X136840939Y-98569999D01*
X136828951Y-98541058D01*
X136741400Y-98410030D01*
X136741397Y-98410026D01*
X136629973Y-98298602D01*
X136629969Y-98298599D01*
X136498949Y-98211052D01*
X136498940Y-98211048D01*
X136353349Y-98150742D01*
X136198795Y-98120000D01*
X135920001Y-98120000D01*
X135920000Y-98120001D01*
X135220000Y-98120001D01*
X135220000Y-98107765D01*
X135226395Y-98088081D01*
X135228559Y-98067498D01*
X135235637Y-98059636D01*
X135238907Y-98049574D01*
X135269497Y-98022030D01*
X135319336Y-97993255D01*
X135319338Y-97993255D01*
X135393360Y-97950518D01*
X135393360Y-97950517D01*
X135393365Y-97950515D01*
X135500515Y-97843365D01*
X135534493Y-97784514D01*
X135576279Y-97712139D01*
X135576279Y-97712137D01*
X135576281Y-97712135D01*
X135615500Y-97565766D01*
X135615500Y-97414234D01*
X135576281Y-97267865D01*
X135576279Y-97267862D01*
X135576279Y-97267860D01*
X135500518Y-97136639D01*
X135500516Y-97136637D01*
X135500515Y-97136635D01*
X135393365Y-97029485D01*
X135393362Y-97029483D01*
X135393360Y-97029481D01*
X135262138Y-96953720D01*
X135262140Y-96953720D01*
X135205347Y-96938503D01*
X135115766Y-96914500D01*
X134964234Y-96914500D01*
X134874652Y-96938503D01*
X134817860Y-96953720D01*
X134686639Y-97029481D01*
X134579481Y-97136639D01*
X134503720Y-97267860D01*
X134487691Y-97327683D01*
X134464500Y-97414234D01*
X134464500Y-97565766D01*
X134469585Y-97584742D01*
X134503720Y-97712139D01*
X134579481Y-97843360D01*
X134579483Y-97843362D01*
X134579485Y-97843365D01*
X134686635Y-97950515D01*
X134686637Y-97950516D01*
X134686639Y-97950518D01*
X134756489Y-97990846D01*
X134797430Y-98036315D01*
X134803826Y-98097165D01*
X134773233Y-98150153D01*
X134744875Y-98168046D01*
X134641059Y-98211048D01*
X134641050Y-98211052D01*
X134510030Y-98298599D01*
X134510026Y-98298602D01*
X134398602Y-98410026D01*
X134398599Y-98410030D01*
X134311048Y-98541058D01*
X134299060Y-98569999D01*
X132410939Y-98569999D01*
X132398951Y-98541058D01*
X132311400Y-98410030D01*
X132311397Y-98410026D01*
X132199973Y-98298602D01*
X132199969Y-98298599D01*
X132068949Y-98211052D01*
X132068940Y-98211048D01*
X131923349Y-98150742D01*
X131768795Y-98120000D01*
X131740001Y-98120000D01*
X131740000Y-98120001D01*
X131040000Y-98120001D01*
X131039999Y-98120000D01*
X131011204Y-98120000D01*
X130856650Y-98150742D01*
X130711059Y-98211048D01*
X130711050Y-98211052D01*
X130580030Y-98298599D01*
X130580026Y-98298602D01*
X130468602Y-98410026D01*
X130468599Y-98410030D01*
X130381048Y-98541058D01*
X130369060Y-98569999D01*
X128550500Y-98569999D01*
X128550500Y-90630000D01*
X130369061Y-90630000D01*
X130381048Y-90658941D01*
X130468599Y-90789969D01*
X130468602Y-90789973D01*
X130580026Y-90901397D01*
X130580030Y-90901400D01*
X130711050Y-90988947D01*
X130711059Y-90988951D01*
X130856650Y-91049257D01*
X131011204Y-91079999D01*
X131011208Y-91080000D01*
X131039999Y-91080000D01*
X131040000Y-91079999D01*
X131040000Y-90630001D01*
X131740000Y-90630001D01*
X131740000Y-91079999D01*
X131740001Y-91080000D01*
X131768792Y-91080000D01*
X131768795Y-91079999D01*
X131923349Y-91049257D01*
X132068940Y-90988951D01*
X132068949Y-90988947D01*
X132199969Y-90901400D01*
X132199973Y-90901397D01*
X132311397Y-90789973D01*
X132311400Y-90789969D01*
X132398951Y-90658941D01*
X132410939Y-90630000D01*
X134299061Y-90630000D01*
X134311048Y-90658941D01*
X134398599Y-90789969D01*
X134398602Y-90789973D01*
X134510026Y-90901397D01*
X134510030Y-90901400D01*
X134641050Y-90988947D01*
X134641062Y-90988953D01*
X134744874Y-91031953D01*
X134791400Y-91071689D01*
X134805684Y-91131184D01*
X134782269Y-91187712D01*
X134756490Y-91209153D01*
X134686637Y-91249483D01*
X134579481Y-91356639D01*
X134503720Y-91487860D01*
X134481793Y-91569693D01*
X134464500Y-91634234D01*
X134464500Y-91785766D01*
X134479753Y-91842690D01*
X134503720Y-91932139D01*
X134579481Y-92063360D01*
X134579483Y-92063362D01*
X134579485Y-92063365D01*
X134686635Y-92170515D01*
X134686637Y-92170516D01*
X134686639Y-92170518D01*
X134817861Y-92246279D01*
X134817859Y-92246279D01*
X134817863Y-92246280D01*
X134817865Y-92246281D01*
X134964234Y-92285500D01*
X134964236Y-92285500D01*
X135115764Y-92285500D01*
X135115766Y-92285500D01*
X135262135Y-92246281D01*
X135262137Y-92246279D01*
X135262139Y-92246279D01*
X135393360Y-92170518D01*
X135393360Y-92170517D01*
X135393365Y-92170515D01*
X135500515Y-92063365D01*
X135527056Y-92017395D01*
X135576279Y-91932139D01*
X135576279Y-91932137D01*
X135576281Y-91932135D01*
X135615500Y-91785766D01*
X135615500Y-91634234D01*
X135576281Y-91487865D01*
X135576279Y-91487862D01*
X135576279Y-91487860D01*
X135500518Y-91356639D01*
X135500516Y-91356637D01*
X135500515Y-91356635D01*
X135393365Y-91249485D01*
X135393362Y-91249483D01*
X135393360Y-91249481D01*
X135269500Y-91177970D01*
X135228559Y-91132501D01*
X135220000Y-91092234D01*
X135220000Y-90630001D01*
X135920000Y-90630001D01*
X135920000Y-91079999D01*
X135920001Y-91080000D01*
X136198792Y-91080000D01*
X136198795Y-91079999D01*
X136353349Y-91049257D01*
X136498940Y-90988951D01*
X136498949Y-90988947D01*
X136629969Y-90901400D01*
X136629973Y-90901397D01*
X136741397Y-90789973D01*
X136741400Y-90789969D01*
X136828951Y-90658941D01*
X136840939Y-90630000D01*
X135920001Y-90630000D01*
X135920000Y-90630001D01*
X135220000Y-90630001D01*
X135219999Y-90630000D01*
X134299061Y-90630000D01*
X132410939Y-90630000D01*
X131740001Y-90630000D01*
X131740000Y-90630001D01*
X131040000Y-90630001D01*
X131039999Y-90630000D01*
X130369061Y-90630000D01*
X128550500Y-90630000D01*
X128550500Y-90240504D01*
X130790000Y-90240504D01*
X130790000Y-90319496D01*
X130810444Y-90395796D01*
X130849940Y-90464205D01*
X130905795Y-90520060D01*
X130974204Y-90559556D01*
X131050504Y-90580000D01*
X131729496Y-90580000D01*
X131805796Y-90559556D01*
X131874205Y-90520060D01*
X131930060Y-90464205D01*
X131969556Y-90395796D01*
X131990000Y-90319496D01*
X131990000Y-90240504D01*
X134720000Y-90240504D01*
X134720000Y-90319496D01*
X134740444Y-90395796D01*
X134779940Y-90464205D01*
X134835795Y-90520060D01*
X134904204Y-90559556D01*
X134980504Y-90580000D01*
X136159496Y-90580000D01*
X136235796Y-90559556D01*
X136304205Y-90520060D01*
X136360060Y-90464205D01*
X136399556Y-90395796D01*
X136420000Y-90319496D01*
X136420000Y-90240504D01*
X136399556Y-90164204D01*
X136360060Y-90095795D01*
X136304205Y-90039940D01*
X136235796Y-90000444D01*
X136159496Y-89980000D01*
X134980504Y-89980000D01*
X134904204Y-90000444D01*
X134835795Y-90039940D01*
X134779940Y-90095795D01*
X134740444Y-90164204D01*
X134720000Y-90240504D01*
X131990000Y-90240504D01*
X131969556Y-90164204D01*
X131930060Y-90095795D01*
X131874205Y-90039940D01*
X131805796Y-90000444D01*
X131729496Y-89980000D01*
X131050504Y-89980000D01*
X130974204Y-90000444D01*
X130905795Y-90039940D01*
X130849940Y-90095795D01*
X130810444Y-90164204D01*
X130790000Y-90240504D01*
X128550500Y-90240504D01*
X128550500Y-89649500D01*
X128569407Y-89591309D01*
X128618907Y-89555345D01*
X128649500Y-89550500D01*
X130449121Y-89550500D01*
X130507312Y-89569407D01*
G37*
%TD.AperFunction*%
%TD*%
M02*
